<?xml version="1.0" encoding="UTF-8"?>
<!DOCTYPE svg PUBLIC "-//W3C//DTD SVG 1.1//EN" "http://www.w3.org/Graphics/SVG/1.1/DTD/svg11.dtd">
<svg xmlns="http://www.w3.org/2000/svg" version="1.1" width="492px" height="414px" style="shape-rendering:geometricPrecision; text-rendering:geometricPrecision; image-rendering:optimizeQuality; fill-rule:evenodd; clip-rule:evenodd" xmlns:xlink="http://www.w3.org/1999/xlink">
<g><path style="opacity:1" fill="#fefefe" d="M -0.5,-0.5 C 163.5,-0.5 327.5,-0.5 491.5,-0.5C 491.5,137.5 491.5,275.5 491.5,413.5C 327.5,413.5 163.5,413.5 -0.5,413.5C -0.5,275.5 -0.5,137.5 -0.5,-0.5 Z"/></g>
<g><path style="opacity:1" fill="#141414" d="M 49.5,3.5 C 50.8743,8.52976 52.2076,13.6964 53.5,19C 51.1667,19.6667 48.8333,19.6667 46.5,19C 48.0591,17.0042 48.7258,14.6709 48.5,12C 48.4644,9.90627 48.1311,7.90627 47.5,6C 48.3805,5.2917 49.0472,4.45837 49.5,3.5 Z"/></g>
<g><path style="opacity:1" fill="#181818" d="M 42.5,3.5 C 42.8931,8.77926 43.8931,13.9459 45.5,19C 42.8333,19.6667 40.1667,19.6667 37.5,19C 40.9988,18.1238 42.3321,15.7905 41.5,12C 41.3996,9.69767 40.733,7.69767 39.5,6C 40.9423,5.62325 41.9423,4.78991 42.5,3.5 Z"/></g>
<g><path style="opacity:1" fill="#2b2b2b" d="M 2.5,5.5 C 4.96638,4.36594 7.63305,4.19927 10.5,5C 9.58377,5.37424 8.75044,5.87424 8,6.5C 7.33333,10.1667 7.33333,13.8333 8,17.5C 8.75044,18.1258 9.58377,18.6258 10.5,19C 7.83333,19.6667 5.16667,19.6667 2.5,19C 3.41623,18.6258 4.24956,18.1258 5,17.5C 5.66667,13.8333 5.66667,10.1667 5,6.5C 4.32924,5.74756 3.4959,5.41423 2.5,5.5 Z"/></g>
<g><path style="opacity:1" fill="#151515" d="M 16.5,5.5 C 19.3035,4.36216 22.3035,4.19549 25.5,5C 22.0012,5.87621 20.6679,8.20954 21.5,12C 20.6679,15.7905 22.0012,18.1238 25.5,19C 20.7058,20.0067 18.7058,19.84 19.5,18.5C 19.5,14.1667 19.5,9.83333 19.5,5.5C 18.5,5.5 17.5,5.5 16.5,5.5 Z"/></g>
<g><path style="opacity:1" fill="#181818" d="M 30.5,9.5 C 33.0606,9.44691 35.0606,10.4469 36.5,12.5C 34.2573,13.4742 31.924,13.8076 29.5,13.5C 30.0767,16.6449 32.0767,18.1449 35.5,18C 34.4214,18.956 33.2547,19.7894 32,20.5C 29.4254,19.1706 27.2588,17.3373 25.5,15C 26.7416,12.7277 28.4083,10.8944 30.5,9.5 Z"/></g>
<g><path style="opacity:1" fill="#e7e7e7" d="M 31.5,10.5 C 35.373,12.1539 35.0397,12.6539 30.5,12C 31.056,11.6174 31.3893,11.1174 31.5,10.5 Z"/></g>
<g><path style="opacity:1" fill="#020202" d="M 57.5,11.5 C 57.448,13.9029 57.7814,16.2362 58.5,18.5C 55.5268,17.5536 54.3602,15.5536 55,12.5C 55.6708,11.7476 56.5041,11.4142 57.5,11.5 Z"/></g>
<g><path style="opacity:1" fill="#f7f7f7" d="M 58.5,18.5 C 57.7814,16.2362 57.448,13.9029 57.5,11.5C 59.854,10.3157 62.1874,10.4824 64.5,12C 65.434,16.4404 63.434,18.6071 58.5,18.5 Z"/></g>
<g><path style="opacity:1" fill="#161616" d="M 58.5,18.5 C 63.434,18.6071 65.434,16.4404 64.5,12C 62.1874,10.4824 59.854,10.3157 57.5,11.5C 58.6591,9.62313 60.3258,9.12313 62.5,10C 70.427,12.9235 70.427,16.2568 62.5,20C 60.6476,20.7726 59.3143,20.2726 58.5,18.5 Z"/></g>
<g><path style="opacity:1" fill="#1c1c1c" d="M 70.5,16.5 C 73.7286,16.1647 75.2286,17.4981 75,20.5C 74.586,20.9574 74.086,21.2907 73.5,21.5C 72.0476,20.0603 71.0476,18.3936 70.5,16.5 Z"/></g>
<g><path style="opacity:1" fill="#0b0b0b" d="M 19.5,36.5 C 18.2223,36.7822 17.2223,37.4489 16.5,38.5C 16.5326,34.8981 15.1993,31.8981 12.5,29.5C 16.8927,29.2187 19.226,31.552 19.5,36.5 Z"/></g>
<g><path style="opacity:1" fill="#1a1a1a" d="M 19.5,29.5 C 20.6009,28.4017 21.9343,28.235 23.5,29C 22.3333,30.1667 21.1667,31.3333 20,32.5C 20.1085,31.2312 19.9418,30.2312 19.5,29.5 Z"/></g>
<g><path style="opacity:1" fill="#020202" d="M 169.5,36.5 C 162.946,37.0555 161.112,34.3888 164,28.5C 164.495,30.4727 164.662,32.4727 164.5,34.5C 166.698,34.1201 168.365,34.7868 169.5,36.5 Z"/></g>
<g><path style="opacity:1" fill="#222222" d="M 170.5,29.5 C 171.077,28.2267 171.743,28.2267 172.5,29.5C 172.03,30.463 171.363,30.463 170.5,29.5 Z"/></g>
<g><path style="opacity:1" fill="#1f1f1f" d="M 273.5,28.5 C 274.833,28.5 276.167,28.5 277.5,28.5C 276.776,43.026 275.443,43.026 273.5,28.5 Z"/></g>
<g><path style="opacity:1" fill="#1a1a1a" d="M 244.5,36.5 C 238.078,34.1494 235.245,36.4827 236,43.5C 236.08,38.3647 235.247,33.5314 233.5,29C 234.448,28.5172 235.448,28.3505 236.5,28.5C 236.5,30.5 236.5,32.5 236.5,34.5C 239.698,33.9644 242.365,34.631 244.5,36.5 Z"/></g>
<g><path style="opacity:1" fill="#262626" d="M 26.5,36.5 C 27.2927,33.5812 28.6261,30.9145 30.5,28.5C 31.2868,32.1031 29.9535,34.7697 26.5,36.5 Z"/></g>
<g><path style="opacity:1" fill="#070707" d="M 97.5,31.5 C 98.404,32.209 98.7373,33.209 98.5,34.5C 103.833,35.1667 103.833,35.8333 98.5,36.5C 98.7989,38.604 98.4656,40.604 97.5,42.5C 96.9639,40.0306 95.9639,37.864 94.5,36C 96.4386,35.0922 97.4386,33.5922 97.5,31.5 Z"/></g>
<g><path style="opacity:1" fill="#030303" d="M 53.5,40.5 C 54.2613,39.6091 55.2613,38.9424 56.5,38.5C 57.3857,37.675 57.719,36.675 57.5,35.5C 56.1266,35.6567 54.7932,35.49 53.5,35C 55.4406,34.2571 57.2739,34.4238 59,35.5C 59.8141,37.9018 59.6474,40.2351 58.5,42.5C 57.7492,41.624 57.2492,40.624 57,39.5C 55.9887,40.3366 54.8221,40.67 53.5,40.5 Z"/></g>
<g><path style="opacity:1" fill="#040404" d="M 65.5,34.5 C 67.4771,35.1495 69.3105,35.1495 71,34.5C 71.5,34.8333 72,35.1667 72.5,35.5C 71.3112,36.4287 69.9778,36.762 68.5,36.5C 68.5,38.5 68.5,40.5 68.5,42.5C 67.5,42.5 66.5,42.5 65.5,42.5C 65.5,40.5 65.5,38.5 65.5,36.5C 64.448,36.6495 63.448,36.4828 62.5,36C 63.7375,35.7679 64.7375,35.2679 65.5,34.5 Z"/></g>
<g><path style="opacity:1" fill="#0f0f0f" d="M 111.5,34.5 C 113.983,34.73 114.483,35.3966 113,36.5C 111.97,36.1639 111.47,35.4972 111.5,34.5 Z"/></g>
<g><path style="opacity:1" fill="#0b0b0b" d="M 121.5,40.5 C 122.456,39.3406 123.456,38.1739 124.5,37C 124.167,36.5 123.833,36 123.5,35.5C 122.232,36.4279 120.899,36.5946 119.5,36C 126.022,33.1301 128.689,35.2967 127.5,42.5C 126.5,42.5 125.5,42.5 124.5,42.5C 124.649,41.448 124.483,40.448 124,39.5C 123.329,40.2524 122.496,40.5858 121.5,40.5 Z"/></g>
<g><path style="opacity:1" fill="#020202" d="M 133.5,34.5 C 134.8,37.0241 134.8,39.6908 133.5,42.5C 132.779,40.314 132.113,38.1474 131.5,36C 132.416,35.7216 133.082,35.2216 133.5,34.5 Z"/></g>
<g><path style="opacity:1" fill="#0d0d0d" d="M 142.5,36.5 C 142.5,38.5 142.5,40.5 142.5,42.5C 141.5,42.5 140.5,42.5 139.5,42.5C 139.5,40.5 139.5,38.5 139.5,36.5C 134.4,36.5343 134.234,35.8677 139,34.5C 140.434,34.8618 141.601,35.5285 142.5,36.5 Z"/></g>
<g><path style="opacity:1" fill="#0f0f0f" d="M 142.5,36.5 C 143.492,34.9735 144.992,34.3068 147,34.5C 148.167,34.8333 149.333,35.1667 150.5,35.5C 151.374,37.7466 151.708,40.0799 151.5,42.5C 150.5,42.5 149.5,42.5 148.5,42.5C 148.5,40.5 148.5,38.5 148.5,36.5C 146.5,36.5 144.5,36.5 142.5,36.5 Z"/></g>
<g><path style="opacity:1" fill="#040404" d="M 190.5,34.5 C 191.5,34.5 192.5,34.5 193.5,34.5C 193.5,37.1667 193.5,39.8333 193.5,42.5C 192.5,42.5 191.5,42.5 190.5,42.5C 190.208,39.6239 190.208,36.9572 190.5,34.5 Z"/></g>
<g><path style="opacity:1" fill="#030303" d="M 195.5,34.5 C 196.675,34.281 197.675,34.6143 198.5,35.5C 197.277,36.6139 195.944,36.7805 194.5,36C 195.056,35.6174 195.389,35.1174 195.5,34.5 Z"/></g>
<g><path style="opacity:1" fill="#0e0e0e" d="M 206.5,35.5 C 207.386,34.2241 208.386,34.2241 209.5,35.5C 208.767,36.087 207.767,36.087 206.5,35.5 Z"/></g>
<g><path style="opacity:1" fill="#161616" d="M 220.5,40.5 C 220.53,41.4972 220.03,42.1639 219,42.5C 217.265,41.3181 216.265,39.6515 216,37.5C 210.507,34.6789 211.34,33.8456 218.5,35C 218.167,35.3333 217.833,35.6667 217.5,36C 218.053,37.8778 219.053,39.3778 220.5,40.5 Z"/></g>
<g><path style="opacity:1" fill="#0f0f0f" d="M 220.5,40.5 C 222.547,38.4332 222.547,36.5998 220.5,35C 222.5,34.3333 224.5,34.3333 226.5,35C 224.86,37.7758 225.527,39.7758 228.5,41C 227.667,41.8333 226.833,42.6667 226,43.5C 225,41.8333 224,40.1667 223,38.5C 222.583,39.756 221.75,40.4226 220.5,40.5 Z"/></g>
<g><path style="opacity:1" fill="#101010" d="M 228.5,35.5 C 229.946,34.3871 231.613,34.2204 233.5,35C 231.939,35.3176 230.772,36.1509 230,37.5C 229.722,36.5842 229.222,35.9175 228.5,35.5 Z"/></g>
<g><path style="opacity:1" fill="#0d0d0d" d="M 252.5,34.5 C 258.502,33.8044 260.835,36.4711 259.5,42.5C 258.5,42.5 257.5,42.5 256.5,42.5C 256.64,40.8762 255.973,39.7096 254.5,39C 255.973,38.2904 256.64,37.1238 256.5,35.5C 254.488,36.0138 252.488,36.1805 250.5,36C 251.416,35.7216 252.082,35.2216 252.5,34.5 Z"/></g>
<g><path style="opacity:1" fill="#090909" d="M 264.5,34.5 C 266.154,36.5597 267.154,39.0597 267.5,42C 266.552,42.4828 265.552,42.6495 264.5,42.5C 264.917,39.9208 264.25,37.7542 262.5,36C 263.416,35.7216 264.082,35.2216 264.5,34.5 Z"/></g>
<g><path style="opacity:1" fill="#0e0e0e" d="M 268.5,34.5 C 269.376,34.3691 270.043,34.7025 270.5,35.5C 268.192,36.8734 267.525,36.5401 268.5,34.5 Z"/></g>
<g><path style="opacity:1" fill="#191919" d="M 16.5,38.5 C 15.7003,40.6825 14.2003,42.3492 12,43.5C 9.08815,38.6175 6.25482,33.7841 3.5,29C 4.94371,28.2195 6.27704,28.3861 7.5,29.5C 8.88806,33.181 10.5547,36.681 12.5,40C 14.0657,40.2997 15.399,39.7997 16.5,38.5 Z"/></g>
<g><path style="opacity:1" fill="#0b0b0b" d="M 32.5,34.5 C 35.0728,34.1485 37.4062,34.6485 39.5,36C 37.5,36 35.5,36 33.5,36C 32.6804,38.3332 32.3471,40.4999 32.5,42.5C 29.8477,39.7988 29.8477,37.1322 32.5,34.5 Z"/></g>
<g><path style="opacity:1" fill="#252525" d="M 76.5,34.5 C 78.924,34.1924 81.2573,34.5258 83.5,35.5C 81.7612,35.5938 79.7612,35.7605 77.5,36C 76.6804,38.3332 76.3471,40.4999 76.5,42.5C 72.5053,39.8477 72.5053,37.181 76.5,34.5 Z"/></g>
<g><path style="opacity:1" fill="#0e0e0e" d="M 107.5,35.5 C 108.468,37.6074 108.802,39.9407 108.5,42.5C 105.221,41.9694 103.887,39.9694 104.5,36.5C 105.791,36.7373 106.791,36.404 107.5,35.5 Z"/></g>
<g><path style="opacity:1" fill="#0e0e0e" d="M 169.5,36.5 C 170.833,36.5 172.167,36.5 173.5,36.5C 172.753,44.3551 171.42,44.3551 169.5,36.5 Z"/></g>
<g><path style="opacity:1" fill="#131313" d="M 179.5,34.5 C 182.073,34.1485 184.406,34.6485 186.5,36C 184.5,36 182.5,36 180.5,36C 179.167,38 179.167,40 180.5,42C 177.882,42.5209 176.549,41.3542 176.5,38.5C 177.286,36.9589 178.286,35.6256 179.5,34.5 Z"/></g>
<g><path style="opacity:1" fill="#010101" d="M 200.5,36.5 C 201.5,36.5 202.5,36.5 203.5,36.5C 203.92,38.674 203.92,40.674 203.5,42.5C 201.022,41.2776 200.022,39.2776 200.5,36.5 Z"/></g>
<g><path style="opacity:1" fill="#030303" d="M 244.5,36.5 C 245.5,36.5 246.5,36.5 247.5,36.5C 247.978,39.2776 246.978,41.2776 244.5,42.5C 244.08,40.674 244.08,38.674 244.5,36.5 Z"/></g>
<g><path style="opacity:1" fill="#1c1c1c" d="M 19.5,36.5 C 20.4793,37.7653 21.4793,39.0986 22.5,40.5C 23.84,39.1335 25.1733,37.8001 26.5,36.5C 23.2291,45.551 20.8958,45.551 19.5,36.5 Z"/></g>
<g><path style="opacity:1" fill="#202020" d="M 53.5,40.5 C 54.5686,44.1273 53.5686,44.4607 50.5,41.5C 51.325,40.6143 52.325,40.281 53.5,40.5 Z"/></g>
<g><path style="opacity:1" fill="#1a1a1a" d="M 121.5,40.5 C 122.147,44.1818 120.814,44.5152 117.5,41.5C 118.689,40.5713 120.022,40.238 121.5,40.5 Z"/></g>
<g><path style="opacity:1" fill="#202020" d="M 249.5,40.5 C 251.359,40.4609 252.692,41.2942 253.5,43C 251.055,43.9098 249.722,43.0764 249.5,40.5 Z"/></g>
<g><path style="opacity:1" fill="#626262" d="M 40.5,40.5 C 41.0431,40.56 41.3764,40.8933 41.5,41.5C 40.635,42.5827 39.635,42.7494 38.5,42C 39.4158,41.7216 40.0825,41.2216 40.5,40.5 Z"/></g>
<g><path style="opacity:1" fill="#8a8a8a" d="M 253.5,93.5 C 249.687,95.1294 245.687,95.4627 241.5,94.5C 239.233,95.3622 238.233,97.0289 238.5,99.5C 239.5,99.5 240.5,99.5 241.5,99.5C 241.527,101.199 242.194,102.533 243.5,103.5C 237.132,103.743 234.799,100.743 236.5,94.5C 228.826,94.3336 221.159,94.5003 213.5,95C 209.882,96.9554 206.549,99.2888 203.5,102C 201.444,102.311 199.444,102.811 197.5,103.5C 196.669,110.142 196.169,116.809 196,123.5C 195.764,125.119 194.931,126.119 193.5,126.5C 194.22,123.042 194.887,119.542 195.5,116C 195.666,113.065 194.999,110.398 193.5,108C 194.022,107.05 194.689,106.216 195.5,105.5C 193.257,104.526 190.924,104.192 188.5,104.5C 188.899,110.641 187.899,110.975 185.5,105.5C 186.09,104.201 187.09,103.368 188.5,103C 187.207,102.51 185.873,102.343 184.5,102.5C 184.46,105.881 184.793,109.214 185.5,112.5C 184.178,112.67 183.011,112.337 182,111.5C 181.302,114.004 180.469,116.337 179.5,118.5C 179.307,114.434 179.64,110.434 180.5,106.5C 181.942,105.18 182.608,103.514 182.5,101.5C 184.96,100.063 187.626,99.0634 190.5,98.5C 190.5,97.1667 190.5,95.8333 190.5,94.5C 192.5,94.5 194.5,94.5 196.5,94.5C 196.796,91.5376 198.462,89.8709 201.5,89.5C 214.814,88.388 228.147,88.2214 241.5,89C 245.685,90.4401 249.685,91.9401 253.5,93.5 Z"/></g>
<g><path style="opacity:1" fill="#6b6c6e" d="M 289.5,88.5 C 289.821,90.0481 290.821,90.7148 292.5,90.5C 292.5,91.8333 292.5,93.1667 292.5,94.5C 283.161,94.3335 273.827,94.5002 264.5,95C 258.41,97.7623 256.744,102.262 259.5,108.5C 256.148,109.553 252.815,109.553 249.5,108.5C 248.147,107.476 247.48,106.143 247.5,104.5C 246.041,104.567 244.708,104.234 243.5,103.5C 242.194,102.533 241.527,101.199 241.5,99.5C 240.5,99.5 239.5,99.5 238.5,99.5C 238.233,97.0289 239.233,95.3622 241.5,94.5C 245.687,95.4627 249.687,95.1294 253.5,93.5C 253.539,92.4168 253.873,91.4168 254.5,90.5C 256.423,89.6922 258.423,89.1922 260.5,89C 270.161,88.5002 279.828,88.3335 289.5,88.5 Z"/></g>
<g><path style="opacity:1" fill="#8c8e8f" d="M 289.5,88.5 C 293.354,88.8386 295.687,90.8386 296.5,94.5C 301.874,93.8805 304.874,96.2138 305.5,101.5C 312.537,103.256 319.204,102.422 325.5,99C 333.5,98.3333 341.5,98.3333 349.5,99C 351.437,99.1216 352.77,99.955 353.5,101.5C 349.366,100.376 345.366,100.876 341.5,103C 342.167,103.333 342.833,103.667 343.5,104C 340.568,104.953 337.568,105.453 334.5,105.5C 334.949,103.023 334.283,101.023 332.5,99.5C 331.614,100.325 331.281,101.325 331.5,102.5C 329.692,102.491 328.025,102.991 326.5,104C 327.711,105.113 327.711,106.28 326.5,107.5C 332.459,107.875 338.459,108.042 344.5,108C 345.056,108.383 345.389,108.883 345.5,109.5C 334.828,109.333 324.161,109.5 313.5,110C 312.13,111.924 310.296,113.091 308,113.5C 306.011,111.819 303.844,110.486 301.5,109.5C 302.57,104.011 300.57,100.344 295.5,98.5C 294.85,96.8164 293.85,95.4831 292.5,94.5C 292.5,93.1667 292.5,91.8333 292.5,90.5C 290.821,90.7148 289.821,90.0481 289.5,88.5 Z"/></g>
<g><path style="opacity:1" fill="#c8c8c8" d="M 180.5,106.5 C 179.64,110.434 179.307,114.434 179.5,118.5C 178.739,119.391 177.739,120.058 176.5,120.5C 175.287,120.253 174.62,119.586 174.5,118.5C 175.5,118.5 176.5,118.5 177.5,118.5C 178.127,115.266 178.127,112.099 177.5,109C 178.13,107.69 179.13,106.856 180.5,106.5 Z"/></g>
<g><path style="opacity:1" fill="#f2f2ee" d="M 179.5,132.5 C 175.11,133.729 170.777,135.062 166.5,136.5C 160.473,135.767 154.473,135.601 148.5,136C 149.685,137.353 151.019,138.52 152.5,139.5C 148.769,139.865 145.769,141.532 143.5,144.5C 142.691,146.792 142.357,148.959 142.5,151C 143.167,151.333 143.833,151.667 144.5,152C 143.776,154.67 142.109,156.17 139.5,156.5C 139.5,154.5 139.5,152.5 139.5,150.5C 138.167,150.5 136.833,150.5 135.5,150.5C 135.5,152.833 135.5,155.167 135.5,157.5C 136.675,157.281 137.675,157.614 138.5,158.5C 135.45,160.517 132.117,161.517 128.5,161.5C 128.738,165.099 127.738,165.433 125.5,162.5C 124.614,163.325 124.281,164.325 124.5,165.5C 129.337,165.116 134.003,165.783 138.5,167.5C 139.468,166.511 140.635,165.844 142,165.5C 144.177,166.099 146.344,166.432 148.5,166.5C 144.623,167.449 140.79,168.449 137,169.5C 132.538,168.668 128.204,168.668 124,169.5C 123.626,170.416 123.126,171.25 122.5,172C 126.358,172.079 130.024,172.746 133.5,174C 132.975,174.692 132.308,175.192 131.5,175.5C 127.874,173.75 125.374,174.75 124,178.5C 123.517,177.552 123.351,176.552 123.5,175.5C 121.123,175.784 118.956,175.784 117,175.5C 116.503,177.81 116.337,180.143 116.5,182.5C 115.325,182.719 114.325,182.386 113.5,181.5C 116.671,175.877 115.171,173.21 109,173.5C 108.383,172.551 108.549,171.718 109.5,171C 108.376,168.518 106.71,168.018 104.5,169.5C 103.708,171.465 103.041,173.465 102.5,175.5C 106.403,175.956 109.403,177.79 111.5,181C 110.675,182.688 109.675,182.855 108.5,181.5C 106.598,176.294 105.598,176.627 105.5,182.5C 104.448,182.351 103.448,182.517 102.5,183C 104.307,183.928 105.974,185.094 107.5,186.5C 109.404,185.74 111.404,185.74 113.5,186.5C 114.5,186.333 115.5,186.167 116.5,186C 116.665,184.883 116.998,183.716 117.5,182.5C 118.968,180.667 120.635,180.334 122.5,181.5C 120.896,183.179 120.229,185.179 120.5,187.5C 118.396,187.201 116.396,187.534 114.5,188.5C 117.167,189.167 119.833,189.833 122.5,190.5C 123.167,191.5 123.833,192.5 124.5,193.5C 124.167,193.833 123.833,194.167 123.5,194.5C 122.481,193.313 121.314,192.313 120,191.5C 116.21,192.136 112.377,192.803 108.5,193.5C 110.392,195.146 112.392,195.48 114.5,194.5C 115.696,194.846 115.696,195.346 114.5,196C 116.715,196.17 118.715,196.837 120.5,198C 117.998,200.212 114.998,201.045 111.5,200.5C 111.5,201.5 111.5,202.5 111.5,203.5C 113.942,203.119 114.609,203.786 113.5,205.5C 114.729,206.281 116.062,206.781 117.5,207C 116.007,208.156 116.174,208.99 118,209.5C 119.559,208.971 121.059,208.304 122.5,207.5C 123.719,208.263 124.719,209.263 125.5,210.5C 126.711,209.726 126.711,208.893 125.5,208C 129.752,206.586 132.252,208.086 133,212.5C 133.333,210.833 133.667,209.167 134,207.5C 134.791,209.604 136.291,210.937 138.5,211.5C 137.41,212.609 137.41,213.609 138.5,214.5C 139.719,213.354 141.052,212.354 142.5,211.5C 141.675,210.614 140.675,210.281 139.5,210.5C 139.551,208.43 138.885,206.597 137.5,205C 139.852,201.22 138.852,198.22 134.5,196C 135.701,195.097 136.535,193.931 137,192.5C 136.791,196.459 138.625,198.126 142.5,197.5C 142.5,196.5 142.5,195.5 142.5,194.5C 145.656,194.529 147.322,196.196 147.5,199.5C 146.975,200.192 146.308,200.692 145.5,201C 147.71,202.715 149.376,204.881 150.5,207.5C 148.042,207.36 145.375,207.694 142.5,208.5C 143.806,209.912 144.64,211.579 145,213.5C 145.75,214.126 146.584,214.626 147.5,215C 146.062,215.219 144.729,215.719 143.5,216.5C 143.032,218.134 142.032,219.3 140.5,220C 142.134,220.494 143.801,220.66 145.5,220.5C 145.5,221.5 145.5,222.5 145.5,223.5C 150.774,224.253 152.44,222.586 150.5,218.5C 152.787,215.337 155.12,213.17 157.5,212C 157.167,211.667 156.833,211.333 156.5,211C 158.712,208.112 160.046,204.945 160.5,201.5C 160.113,206.08 160.947,210.414 163,214.5C 164.491,216.594 166.324,218.261 168.5,219.5C 166.669,218.948 165.003,218.948 163.5,219.5C 163.511,218.559 163.011,217.892 162,217.5C 161.5,217.667 161,217.833 160.5,218C 161.451,218.718 161.617,219.551 161,220.5C 159.915,219.707 158.748,219.04 157.5,218.5C 156.158,220.005 154.492,220.672 152.5,220.5C 152.002,223.487 151.502,226.487 151,229.5C 149.028,228.695 147.528,227.361 146.5,225.5C 145.264,226.246 143.93,226.579 142.5,226.5C 142.5,225.167 142.5,223.833 142.5,222.5C 141.448,222.351 140.448,222.517 139.5,223C 140.207,225.543 141.54,227.709 143.5,229.5C 142.833,231.167 142.167,232.833 141.5,234.5C 143.787,235.215 145.954,235.549 148,235.5C 148.308,234.692 148.808,234.025 149.5,233.5C 150.59,234.727 151.924,235.56 153.5,236C 152.552,236.483 151.552,236.649 150.5,236.5C 150.5,237.5 150.5,238.5 150.5,239.5C 152.674,239.08 154.674,239.08 156.5,239.5C 154.922,240.298 153.256,240.798 151.5,241C 152.167,241.333 152.833,241.667 153.5,242C 151.754,242.471 150.087,243.138 148.5,244C 153.201,244.375 157.701,244.542 162,244.5C 162.167,244.167 162.333,243.833 162.5,243.5C 160.577,242.692 158.577,242.192 156.5,242C 158.008,240.493 159.341,238.827 160.5,237C 159.167,236.667 157.833,236.333 156.5,236C 157.833,235.333 157.833,234.667 156.5,234C 158.749,233.137 160.582,233.637 162,235.5C 162.758,233.231 162.591,231.064 161.5,229C 162,228.5 162.5,228 163,227.5C 163.815,231.776 165.648,235.443 168.5,238.5C 168.204,240.985 166.871,242.652 164.5,243.5C 168.118,245.137 171.451,247.137 174.5,249.5C 171.998,249.621 169.332,249.788 166.5,250C 167.5,250.333 168.5,250.667 169.5,251C 168.62,252.356 168.286,253.856 168.5,255.5C 166.508,255.672 164.842,255.005 163.5,253.5C 162.808,254.025 162.308,254.692 162,255.5C 161.013,251.233 160.179,250.9 159.5,254.5C 157.143,254.337 154.81,254.503 152.5,255C 159.104,256.761 165.604,258.261 172,259.5C 175.126,257.764 175.293,255.597 172.5,253C 172.833,252.5 173.167,252 173.5,251.5C 175.183,253.514 177.183,255.18 179.5,256.5C 178.352,258.149 177.019,259.649 175.5,261C 176.749,262.824 177.915,262.657 179,260.5C 181.178,263.468 182.344,263.135 182.5,259.5C 184.143,259.48 185.476,260.147 186.5,261.5C 188.432,260.855 189.599,259.521 190,257.5C 192.988,259.952 195.988,259.952 199,257.5C 200.326,257.755 201.326,258.422 202,259.5C 206.755,256.477 211.255,256.477 215.5,259.5C 217.371,258.233 219.204,258.233 221,259.5C 221.5,259 222,258.5 222.5,258C 211.833,257 211.833,256 222.5,255C 218.755,255.035 218.088,254.035 220.5,252C 223.488,250.48 226.488,250.314 229.5,251.5C 228.976,256.347 230.976,259.347 235.5,260.5C 232.522,263.977 230.522,263.81 229.5,260C 228.552,259.517 227.552,259.351 226.5,259.5C 226.579,260.93 226.246,262.264 225.5,263.5C 231.518,264.25 237.518,264.916 243.5,265.5C 236.048,267.411 228.381,268.744 220.5,269.5C 210.16,267.906 199.827,266.24 189.5,264.5C 176.49,267.361 163.49,267.695 150.5,265.5C 150.53,264.503 150.03,263.836 149,263.5C 142.916,261.871 137.416,259.204 132.5,255.5C 131.883,255.389 131.383,255.056 131,254.5C 130.833,253 130.667,251.5 130.5,250C 131.588,246.666 132.921,243.499 134.5,240.5C 130.572,241.024 127.239,240.024 124.5,237.5C 123.571,236.685 122.571,235.852 121.5,235C 116.924,234.25 112.591,233.083 108.5,231.5C 104.194,231.113 100.36,229.447 97,226.5C 96.5045,224.527 96.3379,222.527 96.5,220.5C 98.5924,216.737 101.592,214.07 105.5,212.5C 105.5,210.833 105.5,209.167 105.5,207.5C 104.5,207.5 103.5,207.5 102.5,207.5C 102.5,206.167 102.5,204.833 102.5,203.5C 101.5,203.5 100.5,203.5 99.5,203.5C 99.5,202.5 99.5,201.5 99.5,200.5C 88.6459,196.151 83.1459,188.151 83,176.5C 84.0014,173.827 85.5014,171.493 87.5,169.5C 91.5213,168.152 95.5213,166.819 99.5,165.5C 99.5,164.5 99.5,163.5 99.5,162.5C 105.205,162.193 110.871,161.527 116.5,160.5C 117.712,158.077 119.712,157.077 122.5,157.5C 122.738,154.592 121.738,152.258 119.5,150.5C 121.396,149.1 122.729,147.267 123.5,145C 121.751,142.143 122.084,139.143 124.5,136C 127.928,134.11 131.262,131.944 134.5,129.5C 141.441,126.902 148.608,125.236 156,124.5C 163.148,126.245 170.315,127.912 177.5,129.5C 178.612,130.265 179.279,131.265 179.5,132.5 Z"/></g>
<g><path style="opacity:1" fill="#6e6f70" d="M 353.5,101.5 C 356.216,101.678 358.883,102.178 361.5,103C 363.253,104.999 364.587,107.165 365.5,109.5C 368.5,110.833 371.5,112.167 374.5,113.5C 375.725,118.491 375.725,123.491 374.5,128.5C 384.591,125.657 394.591,125.991 404.5,129.5C 405.386,130.325 405.719,131.325 405.5,132.5C 408.187,132.336 410.854,132.503 413.5,133C 415.01,135.755 417.343,136.921 420.5,136.5C 420.238,137.978 420.571,139.311 421.5,140.5C 422.695,142.297 424.362,143.297 426.5,143.5C 426.5,145.167 426.5,146.833 426.5,148.5C 427.5,148.5 428.5,148.5 429.5,148.5C 429.826,152.884 429.492,157.217 428.5,161.5C 426.69,163.623 425.357,165.957 424.5,168.5C 423.167,168.5 421.833,168.5 420.5,168.5C 420.167,172.167 418.167,174.167 414.5,174.5C 414.201,176.604 414.534,178.604 415.5,180.5C 416.752,182.001 417.752,183.668 418.5,185.5C 419.689,186.429 421.022,186.762 422.5,186.5C 424.009,195.345 421.676,202.845 415.5,209C 414.207,209.49 412.873,209.657 411.5,209.5C 407.952,209.905 404.619,209.405 401.5,208C 402.733,206.333 404.067,204.833 405.5,203.5C 408.366,202.241 411.366,201.241 414.5,200.5C 414.5,197.833 414.5,195.167 414.5,192.5C 412.5,191.833 410.5,191.167 408.5,190.5C 408.649,189.448 408.483,188.448 408,187.5C 405.612,184.263 402.446,182.597 398.5,182.5C 398.336,179.813 398.503,177.146 399,174.5C 399.7,172.968 400.866,171.968 402.5,171.5C 403.386,170.675 403.719,169.675 403.5,168.5C 406.167,168.5 408.833,168.5 411.5,168.5C 411.5,167.5 411.5,166.5 411.5,165.5C 412.5,165.5 413.5,165.5 414.5,165.5C 414.351,164.448 414.517,163.448 415,162.5C 420.304,160.948 421.804,157.614 419.5,152.5C 416.793,150.611 414.793,148.111 413.5,145C 398.717,142.768 384.05,140.268 369.5,137.5C 366.305,131.626 364.805,125.293 365,118.5C 363.431,117.062 361.931,115.562 360.5,114C 355.418,112.441 350.418,110.941 345.5,109.5C 345.389,108.883 345.056,108.383 344.5,108C 338.459,108.042 332.459,107.875 326.5,107.5C 327.711,106.28 327.711,105.113 326.5,104C 328.025,102.991 329.692,102.491 331.5,102.5C 331.281,101.325 331.614,100.325 332.5,99.5C 334.283,101.023 334.949,103.023 334.5,105.5C 337.568,105.453 340.568,104.953 343.5,104C 342.833,103.667 342.167,103.333 341.5,103C 345.366,100.876 349.366,100.376 353.5,101.5 Z"/></g>
<g><path style="opacity:1" fill="#cdcdcd" d="M 116.5,138.5 C 115.573,143.312 113.906,147.645 111.5,151.5C 111.516,147.274 112.516,143.274 114.5,139.5C 115.183,139.137 115.85,138.804 116.5,138.5 Z"/></g>
<g><path style="opacity:1" fill="#787878" d="M 193.5,126.5 C 191.18,128.226 188.513,128.893 185.5,128.5C 185.5,130.167 185.5,131.833 185.5,133.5C 183.379,133.675 181.379,133.341 179.5,132.5C 179.279,131.265 178.612,130.265 177.5,129.5C 170.315,127.912 163.148,126.245 156,124.5C 148.608,125.236 141.441,126.902 134.5,129.5C 131.262,131.944 127.928,134.11 124.5,136C 122.084,139.143 121.751,142.143 123.5,145C 122.729,147.267 121.396,149.1 119.5,150.5C 121.738,152.258 122.738,154.592 122.5,157.5C 119.712,157.077 117.712,158.077 116.5,160.5C 110.871,161.527 105.205,162.193 99.5,162.5C 99.5,163.5 99.5,164.5 99.5,165.5C 95.5213,166.819 91.5213,168.152 87.5,169.5C 85.5014,171.493 84.0014,173.827 83,176.5C 83.1459,188.151 88.6459,196.151 99.5,200.5C 99.5,201.5 99.5,202.5 99.5,203.5C 100.5,203.5 101.5,203.5 102.5,203.5C 102.5,204.833 102.5,206.167 102.5,207.5C 103.5,207.5 104.5,207.5 105.5,207.5C 105.5,209.167 105.5,210.833 105.5,212.5C 101.592,214.07 98.5924,216.737 96.5,220.5C 96.44,219.957 96.1067,219.624 95.5,219.5C 93.2906,220.106 91.124,220.773 89,221.5C 87.6632,225.026 87.1632,228.692 87.5,232.5C 86.2057,230.952 85.5391,228.952 85.5,226.5C 87.2071,222.052 88.5405,217.386 89.5,212.5C 96.1667,211.167 96.1667,209.833 89.5,208.5C 88.7023,205.189 86.869,202.522 84,200.5C 83.51,199.207 83.3433,197.873 83.5,196.5C 81.139,196.326 78.8056,195.993 76.5,195.5C 76.6747,193.379 76.3414,191.379 75.5,189.5C 75.2401,183.828 74.9068,178.161 74.5,172.5C 75.9867,169.454 76.9867,166.121 77.5,162.5C 81.3693,162.373 84.0359,160.54 85.5,157C 86.7932,156.51 88.1266,156.343 89.5,156.5C 89.5,155.5 89.5,154.5 89.5,153.5C 96.6739,151.704 104.007,151.037 111.5,151.5C 113.906,147.645 115.573,143.312 116.5,138.5C 115.749,132.664 118.083,128.664 123.5,126.5C 124.386,125.675 124.719,124.675 124.5,123.5C 126.167,123.5 127.833,123.5 129.5,123.5C 129.5,122.5 129.5,121.5 129.5,120.5C 132.887,119.982 136.221,119.149 139.5,118C 140.833,117.333 141.833,116.333 142.5,115C 150.5,114.333 158.5,114.333 166.5,115C 168.737,117.065 171.403,118.231 174.5,118.5C 174.62,119.586 175.287,120.253 176.5,120.5C 177.739,120.058 178.739,119.391 179.5,118.5C 180.469,116.337 181.302,114.004 182,111.5C 183.011,112.337 184.178,112.67 185.5,112.5C 184.793,109.214 184.46,105.881 184.5,102.5C 185.873,102.343 187.207,102.51 188.5,103C 187.09,103.368 186.09,104.201 185.5,105.5C 187.899,110.975 188.899,110.641 188.5,104.5C 190.924,104.192 193.257,104.526 195.5,105.5C 194.689,106.216 194.022,107.05 193.5,108C 194.999,110.398 195.666,113.065 195.5,116C 194.887,119.542 194.22,123.042 193.5,126.5 Z"/></g>
<g><path style="opacity:1" fill="#cbcbcb" d="M 74.5,172.5 C 74.9068,178.161 75.2401,183.828 75.5,189.5C 74.0592,185.395 73.0592,181.061 72.5,176.5C 72.5854,174.667 73.2521,173.334 74.5,172.5 Z"/></g>
<g><path style="opacity:1" fill="#f7f7f4" d="M 243.5,103.5 C 244.708,104.234 246.041,104.567 247.5,104.5C 247.48,106.143 248.147,107.476 249.5,108.5C 252.815,109.553 256.148,109.553 259.5,108.5C 256.744,102.262 258.41,97.7623 264.5,95C 273.827,94.5002 283.161,94.3335 292.5,94.5C 293.85,95.4831 294.85,96.8164 295.5,98.5C 300.57,100.344 302.57,104.011 301.5,109.5C 303.844,110.486 306.011,111.819 308,113.5C 310.296,113.091 312.13,111.924 313.5,110C 324.161,109.5 334.828,109.333 345.5,109.5C 350.418,110.941 355.418,112.441 360.5,114C 361.931,115.562 363.431,117.062 365,118.5C 364.805,125.293 366.305,131.626 369.5,137.5C 384.05,140.268 398.717,142.768 413.5,145C 414.793,148.111 416.793,150.611 419.5,152.5C 421.804,157.614 420.304,160.948 415,162.5C 414.517,163.448 414.351,164.448 414.5,165.5C 413.5,165.5 412.5,165.5 411.5,165.5C 411.5,166.5 411.5,167.5 411.5,168.5C 408.833,168.5 406.167,168.5 403.5,168.5C 403.719,169.675 403.386,170.675 402.5,171.5C 400.866,171.968 399.7,172.968 399,174.5C 398.503,177.146 398.336,179.813 398.5,182.5C 402.446,182.597 405.612,184.263 408,187.5C 408.483,188.448 408.649,189.448 408.5,190.5C 410.5,191.167 412.5,191.833 414.5,192.5C 414.5,195.167 414.5,197.833 414.5,200.5C 411.366,201.241 408.366,202.241 405.5,203.5C 400.935,205.389 397.102,208.389 394,212.5C 393.333,214.833 393.333,217.167 394,219.5C 395.011,220.337 396.178,220.67 397.5,220.5C 397.5,222.5 397.5,224.5 397.5,226.5C 384.075,228.84 370.741,231.174 357.5,233.5C 357.5,237.5 357.5,241.5 357.5,245.5C 349.934,249.647 342.268,253.647 334.5,257.5C 333.244,257.461 332.244,257.961 331.5,259C 318.154,259.833 304.821,259.666 291.5,258.5C 289.045,257.645 286.712,256.645 284.5,255.5C 281.242,255.025 278.242,253.858 275.5,252C 271.179,251.501 266.846,251.334 262.5,251.5C 262.5,253.167 262.5,254.833 262.5,256.5C 260.216,257.029 258.216,258.029 256.5,259.5C 251.972,261.267 247.638,263.267 243.5,265.5C 237.518,264.916 231.518,264.25 225.5,263.5C 226.246,262.264 226.579,260.93 226.5,259.5C 227.552,259.351 228.552,259.517 229.5,260C 230.522,263.81 232.522,263.977 235.5,260.5C 230.976,259.347 228.976,256.347 229.5,251.5C 226.488,250.314 223.488,250.48 220.5,252C 218.088,254.035 218.755,255.035 222.5,255C 211.833,256 211.833,257 222.5,258C 222,258.5 221.5,259 221,259.5C 219.204,258.233 217.371,258.233 215.5,259.5C 211.255,256.477 206.755,256.477 202,259.5C 201.326,258.422 200.326,257.755 199,257.5C 195.988,259.952 192.988,259.952 190,257.5C 189.599,259.521 188.432,260.855 186.5,261.5C 185.476,260.147 184.143,259.48 182.5,259.5C 182.344,263.135 181.178,263.468 179,260.5C 177.915,262.657 176.749,262.824 175.5,261C 177.019,259.649 178.352,258.149 179.5,256.5C 177.183,255.18 175.183,253.514 173.5,251.5C 173.167,252 172.833,252.5 172.5,253C 175.293,255.597 175.126,257.764 172,259.5C 165.604,258.261 159.104,256.761 152.5,255C 154.81,254.503 157.143,254.337 159.5,254.5C 160.179,250.9 161.013,251.233 162,255.5C 162.308,254.692 162.808,254.025 163.5,253.5C 164.842,255.005 166.508,255.672 168.5,255.5C 168.286,253.856 168.62,252.356 169.5,251C 168.5,250.667 167.5,250.333 166.5,250C 169.332,249.788 171.998,249.621 174.5,249.5C 171.451,247.137 168.118,245.137 164.5,243.5C 166.871,242.652 168.204,240.985 168.5,238.5C 165.648,235.443 163.815,231.776 163,227.5C 162.5,228 162,228.5 161.5,229C 162.591,231.064 162.758,233.231 162,235.5C 160.582,233.637 158.749,233.137 156.5,234C 157.833,234.667 157.833,235.333 156.5,236C 157.833,236.333 159.167,236.667 160.5,237C 159.341,238.827 158.008,240.493 156.5,242C 158.577,242.192 160.577,242.692 162.5,243.5C 162.333,243.833 162.167,244.167 162,244.5C 157.701,244.542 153.201,244.375 148.5,244C 150.087,243.138 151.754,242.471 153.5,242C 152.833,241.667 152.167,241.333 151.5,241C 153.256,240.798 154.922,240.298 156.5,239.5C 154.674,239.08 152.674,239.08 150.5,239.5C 150.5,238.5 150.5,237.5 150.5,236.5C 151.552,236.649 152.552,236.483 153.5,236C 151.924,235.56 150.59,234.727 149.5,233.5C 148.808,234.025 148.308,234.692 148,235.5C 145.954,235.549 143.787,235.215 141.5,234.5C 142.167,232.833 142.833,231.167 143.5,229.5C 141.54,227.709 140.207,225.543 139.5,223C 140.448,222.517 141.448,222.351 142.5,222.5C 142.5,223.833 142.5,225.167 142.5,226.5C 143.93,226.579 145.264,226.246 146.5,225.5C 147.528,227.361 149.028,228.695 151,229.5C 151.502,226.487 152.002,223.487 152.5,220.5C 154.492,220.672 156.158,220.005 157.5,218.5C 158.748,219.04 159.915,219.707 161,220.5C 161.617,219.551 161.451,218.718 160.5,218C 161,217.833 161.5,217.667 162,217.5C 163.011,217.892 163.511,218.559 163.5,219.5C 165.003,218.948 166.669,218.948 168.5,219.5C 180.484,222.122 191.817,220.455 202.5,214.5C 204.312,210.204 206.312,206.037 208.5,202C 207.171,197.181 205.171,192.681 202.5,188.5C 188.632,182.149 175.965,183.816 164.5,193.5C 162.607,195.952 161.274,198.619 160.5,201.5C 160.046,204.945 158.712,208.112 156.5,211C 156.833,211.333 157.167,211.667 157.5,212C 155.12,213.17 152.787,215.337 150.5,218.5C 152.44,222.586 150.774,224.253 145.5,223.5C 145.5,222.5 145.5,221.5 145.5,220.5C 143.801,220.66 142.134,220.494 140.5,220C 142.032,219.3 143.032,218.134 143.5,216.5C 144.729,215.719 146.062,215.219 147.5,215C 146.584,214.626 145.75,214.126 145,213.5C 144.64,211.579 143.806,209.912 142.5,208.5C 145.375,207.694 148.042,207.36 150.5,207.5C 149.376,204.881 147.71,202.715 145.5,201C 146.308,200.692 146.975,200.192 147.5,199.5C 147.322,196.196 145.656,194.529 142.5,194.5C 142.5,195.5 142.5,196.5 142.5,197.5C 138.625,198.126 136.791,196.459 137,192.5C 136.535,193.931 135.701,195.097 134.5,196C 138.852,198.22 139.852,201.22 137.5,205C 138.885,206.597 139.551,208.43 139.5,210.5C 140.675,210.281 141.675,210.614 142.5,211.5C 141.052,212.354 139.719,213.354 138.5,214.5C 137.41,213.609 137.41,212.609 138.5,211.5C 136.291,210.937 134.791,209.604 134,207.5C 133.667,209.167 133.333,210.833 133,212.5C 132.252,208.086 129.752,206.586 125.5,208C 126.711,208.893 126.711,209.726 125.5,210.5C 124.719,209.263 123.719,208.263 122.5,207.5C 121.059,208.304 119.559,208.971 118,209.5C 116.174,208.99 116.007,208.156 117.5,207C 116.062,206.781 114.729,206.281 113.5,205.5C 114.609,203.786 113.942,203.119 111.5,203.5C 111.5,202.5 111.5,201.5 111.5,200.5C 114.998,201.045 117.998,200.212 120.5,198C 118.715,196.837 116.715,196.17 114.5,196C 115.696,195.346 115.696,194.846 114.5,194.5C 112.392,195.48 110.392,195.146 108.5,193.5C 112.377,192.803 116.21,192.136 120,191.5C 121.314,192.313 122.481,193.313 123.5,194.5C 123.833,194.167 124.167,193.833 124.5,193.5C 123.833,192.5 123.167,191.5 122.5,190.5C 119.833,189.833 117.167,189.167 114.5,188.5C 116.396,187.534 118.396,187.201 120.5,187.5C 120.229,185.179 120.896,183.179 122.5,181.5C 120.635,180.334 118.968,180.667 117.5,182.5C 116.998,183.716 116.665,184.883 116.5,186C 115.5,186.167 114.5,186.333 113.5,186.5C 111.404,185.74 109.404,185.74 107.5,186.5C 105.974,185.094 104.307,183.928 102.5,183C 103.448,182.517 104.448,182.351 105.5,182.5C 105.598,176.627 106.598,176.294 108.5,181.5C 109.675,182.855 110.675,182.688 111.5,181C 109.403,177.79 106.403,175.956 102.5,175.5C 103.041,173.465 103.708,171.465 104.5,169.5C 106.71,168.018 108.376,168.518 109.5,171C 108.549,171.718 108.383,172.551 109,173.5C 115.171,173.21 116.671,175.877 113.5,181.5C 114.325,182.386 115.325,182.719 116.5,182.5C 116.337,180.143 116.503,177.81 117,175.5C 118.956,175.784 121.123,175.784 123.5,175.5C 123.351,176.552 123.517,177.552 124,178.5C 125.374,174.75 127.874,173.75 131.5,175.5C 132.308,175.192 132.975,174.692 133.5,174C 130.024,172.746 126.358,172.079 122.5,172C 123.126,171.25 123.626,170.416 124,169.5C 128.204,168.668 132.538,168.668 137,169.5C 140.79,168.449 144.623,167.449 148.5,166.5C 146.344,166.432 144.177,166.099 142,165.5C 140.635,165.844 139.468,166.511 138.5,167.5C 134.003,165.783 129.337,165.116 124.5,165.5C 124.281,164.325 124.614,163.325 125.5,162.5C 127.738,165.433 128.738,165.099 128.5,161.5C 132.117,161.517 135.45,160.517 138.5,158.5C 137.675,157.614 136.675,157.281 135.5,157.5C 135.5,155.167 135.5,152.833 135.5,150.5C 136.833,150.5 138.167,150.5 139.5,150.5C 139.5,152.5 139.5,154.5 139.5,156.5C 142.109,156.17 143.776,154.67 144.5,152C 143.833,151.667 143.167,151.333 142.5,151C 142.357,148.959 142.691,146.792 143.5,144.5C 145.769,141.532 148.769,139.865 152.5,139.5C 151.019,138.52 149.685,137.353 148.5,136C 154.473,135.601 160.473,135.767 166.5,136.5C 170.777,135.062 175.11,133.729 179.5,132.5C 181.379,133.341 183.379,133.675 185.5,133.5C 185.5,131.833 185.5,130.167 185.5,128.5C 188.513,128.893 191.18,128.226 193.5,126.5C 194.931,126.119 195.764,125.119 196,123.5C 196.169,116.809 196.669,110.142 197.5,103.5C 199.444,102.811 201.444,102.311 203.5,102C 206.549,99.2888 209.882,96.9554 213.5,95C 221.159,94.5003 228.826,94.3336 236.5,94.5C 234.799,100.743 237.132,103.743 243.5,103.5 Z"/></g>
<g><path style="opacity:1" fill="#040404" d="M 168.5,219.5 C 166.324,218.261 164.491,216.594 163,214.5C 160.947,210.414 160.113,206.08 160.5,201.5C 161.274,198.619 162.607,195.952 164.5,193.5C 175.965,183.816 188.632,182.149 202.5,188.5C 205.171,192.681 207.171,197.181 208.5,202C 206.312,206.037 204.312,210.204 202.5,214.5C 191.817,220.455 180.484,222.122 168.5,219.5 Z"/></g>
<g><path style="opacity:1" fill="#050505" d="M 229.5,174.5 C 237.052,173.873 244.385,174.706 251.5,177C 258.574,183.684 260.24,191.517 256.5,200.5C 255.448,200.351 254.448,200.517 253.5,201C 250.638,205.936 246.305,208.603 240.5,209C 224.794,214.142 214.461,209.142 209.5,194C 210.256,191.144 211.089,188.311 212,185.5C 215.465,183.037 218.631,180.204 221.5,177C 224.457,176.721 227.123,175.887 229.5,174.5 Z"/></g>
<g><path style="opacity:1" fill="#f6f5f3" d="M 230.5,184.5 C 234.712,184.078 238.712,184.744 242.5,186.5C 243.833,189.833 243.833,193.167 242.5,196.5C 239.075,197.091 236.075,198.425 233.5,200.5C 230.922,199.874 228.589,198.707 226.5,197C 225.39,194.263 225.223,191.429 226,188.5C 227.492,187.08 228.992,185.746 230.5,184.5 Z"/></g>
<g><path style="opacity:1" fill="#070707" d="M 290.5,161.5 C 292.074,164.907 293.074,168.573 293.5,172.5C 290.119,172.46 286.786,172.793 283.5,173.5C 283.273,181.35 284.273,189.017 286.5,196.5C 281.635,199.677 276.302,201.01 270.5,200.5C 269.834,192.517 269.501,184.517 269.5,176.5C 265.368,176.895 261.368,177.895 257.5,179.5C 256.513,176.232 256.18,172.898 256.5,169.5C 268.288,168.051 279.622,165.384 290.5,161.5 Z"/></g>
<g><path style="opacity:1" fill="#050505" d="M 317.5,156.5 C 324.966,156.031 331.633,158.031 337.5,162.5C 342.185,170.861 341.185,178.361 334.5,185C 328.657,186.947 322.99,189.28 317.5,192C 311.75,192.434 306.083,193.268 300.5,194.5C 300.087,187.685 298.92,181.018 297,174.5C 296.501,169.845 296.334,165.179 296.5,160.5C 303.85,160.216 310.85,158.882 317.5,156.5 Z"/></g>
<g><path style="opacity:1" fill="#f3f2ef" d="M 313.5,167.5 C 326.228,166.206 328.894,170.706 321.5,181C 318.312,182.383 315.146,182.549 312,181.5C 310.989,176.529 311.489,171.863 313.5,167.5 Z"/></g>
<g><path style="opacity:1" fill="#f3f3f0" d="M 180.5,195.5 C 190.788,194.396 194.121,198.73 190.5,208.5C 185.239,211.443 180.239,211.11 175.5,207.5C 173.936,202.089 175.602,198.089 180.5,195.5 Z"/></g>
<g><path style="opacity:1" fill="#999a99" d="M 405.5,203.5 C 404.067,204.833 402.733,206.333 401.5,208C 404.619,209.405 407.952,209.905 411.5,209.5C 409.049,210.831 406.716,212.498 404.5,214.5C 403.107,216.674 403.44,218.507 405.5,220C 404.253,221.458 404.253,222.958 405.5,224.5C 404.366,227.07 403.532,229.736 403,232.5C 401.989,233.337 400.822,233.67 399.5,233.5C 400.931,231.599 401.931,229.432 402.5,227C 400.866,226.506 399.199,226.34 397.5,226.5C 397.5,224.5 397.5,222.5 397.5,220.5C 396.178,220.67 395.011,220.337 394,219.5C 393.333,217.167 393.333,214.833 394,212.5C 397.102,208.389 400.935,205.389 405.5,203.5 Z"/></g>
<g><path style="opacity:1" fill="#565759" d="M 108.5,231.5 C 112.591,233.083 116.924,234.25 121.5,235C 122.571,235.852 123.571,236.685 124.5,237.5C 124.286,239.144 124.62,240.644 125.5,242C 116.935,243.144 108.602,242.31 100.5,239.5C 99.7515,237.668 98.7515,236.001 97.5,234.5C 98.7836,233.37 99.617,232.037 100,230.5C 100.945,230.905 101.612,231.572 102,232.5C 104.041,231.577 106.208,231.244 108.5,231.5 Z"/></g>
<g><path style="opacity:1" fill="#6d6e70" d="M 397.5,226.5 C 399.199,226.34 400.866,226.506 402.5,227C 401.931,229.432 400.931,231.599 399.5,233.5C 398.596,234.209 398.263,235.209 398.5,236.5C 395.5,236.5 392.5,236.5 389.5,236.5C 389.5,237.833 389.5,239.167 389.5,240.5C 380.833,240.5 372.167,240.5 363.5,240.5C 362.582,242.82 361.248,244.987 359.5,247C 358.184,247.528 357.517,247.028 357.5,245.5C 357.5,241.5 357.5,237.5 357.5,233.5C 370.741,231.174 384.075,228.84 397.5,226.5 Z"/></g>
<g><path style="opacity:1" fill="#666668" d="M 96.5,220.5 C 96.3379,222.527 96.5045,224.527 97,226.5C 100.36,229.447 104.194,231.113 108.5,231.5C 106.208,231.244 104.041,231.577 102,232.5C 101.612,231.572 100.945,230.905 100,230.5C 99.617,232.037 98.7836,233.37 97.5,234.5C 98.7515,236.001 99.7515,237.668 100.5,239.5C 108.602,242.31 116.935,243.144 125.5,242C 124.62,240.644 124.286,239.144 124.5,237.5C 127.239,240.024 130.572,241.024 134.5,240.5C 132.921,243.499 131.588,246.666 130.5,250C 130.667,251.5 130.833,253 131,254.5C 131.383,255.056 131.883,255.389 132.5,255.5C 133.234,256.708 133.567,258.041 133.5,259.5C 130.43,259.632 127.43,259.299 124.5,258.5C 123.69,254.224 123.023,249.891 122.5,245.5C 118.682,245.414 115.016,246.081 111.5,247.5C 108.272,246.142 104.939,245.142 101.5,244.5C 99.3766,242.69 97.0433,241.357 94.5,240.5C 94.1156,238.071 93.449,235.737 92.5,233.5C 90.7839,233.371 89.1172,233.038 87.5,232.5C 87.1632,228.692 87.6632,225.026 89,221.5C 91.124,220.773 93.2906,220.106 95.5,219.5C 96.1067,219.624 96.44,219.957 96.5,220.5 Z"/></g>
<g><path style="opacity:1" fill="#737374" d="M 412.5,250.5 C 413.234,251.708 413.567,253.041 413.5,254.5C 411.833,254.5 410.167,254.5 408.5,254.5C 399.969,252.811 391.969,254.144 384.5,258.5C 385.63,259.622 386.297,260.956 386.5,262.5C 386.631,263.376 386.298,264.043 385.5,264.5C 382.613,263.122 379.946,261.456 377.5,259.5C 379.8,256.161 382.8,253.495 386.5,251.5C 395.149,248.207 403.816,247.874 412.5,250.5 Z"/></g>
<g><path style="opacity:1" fill="#eeeeea" d="M 408.5,254.5 C 410.556,255.216 412.723,255.883 415,256.5C 415.388,259.849 415.221,263.183 414.5,266.5C 410.833,266.5 407.167,266.5 403.5,266.5C 402.833,266.5 402.167,266.5 401.5,266.5C 397.818,266.665 394.152,266.499 390.5,266C 388.973,264.968 387.64,263.801 386.5,262.5C 386.297,260.956 385.63,259.622 384.5,258.5C 391.969,254.144 399.969,252.811 408.5,254.5 Z"/></g>
<g><path style="opacity:1" fill="#999b9a" d="M 363.5,240.5 C 363.733,246.606 363.066,252.606 361.5,258.5C 360.264,259.246 358.93,259.579 357.5,259.5C 355.94,259.519 354.44,259.852 353,260.5C 351.76,262.645 349.926,263.978 347.5,264.5C 343.456,265.005 339.456,265.671 335.5,266.5C 331.609,266.247 329.609,264.247 329.5,260.5C 331.144,260.286 332.644,260.62 334,261.5C 334.49,260.207 334.657,258.873 334.5,257.5C 342.268,253.647 349.934,249.647 357.5,245.5C 357.517,247.028 358.184,247.528 359.5,247C 361.248,244.987 362.582,242.82 363.5,240.5 Z"/></g>
<g><path style="opacity:1" fill="#616265" d="M 284.5,255.5 C 287.8,258.316 289.133,261.982 288.5,266.5C 282.167,267.833 275.833,267.833 269.5,266.5C 268.833,266.5 268.167,266.5 267.5,266.5C 267.389,265.883 267.056,265.383 266.5,265C 263.183,264.502 259.85,264.335 256.5,264.5C 256.5,262.833 256.5,261.167 256.5,259.5C 258.216,258.029 260.216,257.029 262.5,256.5C 262.5,254.833 262.5,253.167 262.5,251.5C 266.846,251.334 271.179,251.501 275.5,252C 278.242,253.858 281.242,255.025 284.5,255.5 Z"/></g>
<g><path style="opacity:1" fill="#abadac" d="M 284.5,255.5 C 286.712,256.645 289.045,257.645 291.5,258.5C 304.821,259.666 318.154,259.833 331.5,259C 332.244,257.961 333.244,257.461 334.5,257.5C 334.657,258.873 334.49,260.207 334,261.5C 332.644,260.62 331.144,260.286 329.5,260.5C 329.609,264.247 331.609,266.247 335.5,266.5C 339.456,265.671 343.456,265.005 347.5,264.5C 349.926,263.978 351.76,262.645 353,260.5C 354.44,259.852 355.94,259.519 357.5,259.5C 355.827,261.839 353.827,263.839 351.5,265.5C 344.899,266.827 338.233,267.493 331.5,267.5C 331.5,268.5 331.5,269.5 331.5,270.5C 328.833,270.5 326.167,270.5 323.5,270.5C 323.5,271.5 323.5,272.5 323.5,273.5C 310.511,274.436 297.511,274.603 284.5,274C 279.464,271.35 274.464,268.85 269.5,266.5C 275.833,267.833 282.167,267.833 288.5,266.5C 289.133,261.982 287.8,258.316 284.5,255.5 Z"/></g>
<g><path style="opacity:1" fill="#b0b1b0" d="M 132.5,255.5 C 137.416,259.204 142.916,261.871 149,263.5C 150.03,263.836 150.53,264.503 150.5,265.5C 147.214,266.207 143.881,266.54 140.5,266.5C 141.64,269.025 142.307,271.692 142.5,274.5C 144.433,274.729 146.1,275.562 147.5,277C 148.252,277.671 148.586,278.504 148.5,279.5C 145.813,279.664 143.146,279.497 140.5,279C 139.62,277.644 139.286,276.144 139.5,274.5C 138.5,274.5 137.5,274.5 136.5,274.5C 135.831,269.814 133.164,267.481 128.5,267.5C 126.917,264.663 125.584,261.663 124.5,258.5C 127.43,259.299 130.43,259.632 133.5,259.5C 133.567,258.041 133.234,256.708 132.5,255.5 Z"/></g>
<g><path style="opacity:1" fill="#737475" d="M 256.5,259.5 C 256.5,261.167 256.5,262.833 256.5,264.5C 259.85,264.335 263.183,264.502 266.5,265C 267.056,265.383 267.389,265.883 267.5,266.5C 263.818,266.335 260.152,266.501 256.5,267C 254.348,268.413 252.014,269.246 249.5,269.5C 249.5,270.5 249.5,271.5 249.5,272.5C 245.391,274.019 241.057,274.853 236.5,275C 233.559,277.239 230.226,278.572 226.5,279C 219.174,279.5 211.841,279.666 204.5,279.5C 204.5,278.5 204.5,277.5 204.5,276.5C 200.295,276.283 196.295,275.617 192.5,274.5C 198.899,274.9 205.232,274.9 211.5,274.5C 212.5,275.833 213.5,277.167 214.5,278.5C 219.639,276.505 224.973,275.339 230.5,275C 230.034,273.701 230.034,272.201 230.5,270.5C 226.958,270.813 223.625,270.479 220.5,269.5C 228.381,268.744 236.048,267.411 243.5,265.5C 247.638,263.267 251.972,261.267 256.5,259.5 Z"/></g>
<g><path style="opacity:1" fill="#878888" d="M 412.5,250.5 C 415.484,250.787 416.817,252.454 416.5,255.5C 418.39,255.297 419.89,255.963 421,257.5C 421.43,260.192 421.263,262.859 420.5,265.5C 419.448,265.351 418.448,265.517 417.5,266C 414.155,268.667 410.822,271.334 407.5,274C 401.833,274.667 396.167,274.667 390.5,274C 388.879,270.688 386.212,269.188 382.5,269.5C 382.264,267.027 380.931,265.36 378.5,264.5C 377.548,262.955 377.215,261.288 377.5,259.5C 379.946,261.456 382.613,263.122 385.5,264.5C 386.298,264.043 386.631,263.376 386.5,262.5C 387.64,263.801 388.973,264.968 390.5,266C 394.152,266.499 397.818,266.665 401.5,266.5C 398.375,267.479 395.042,267.813 391.5,267.5C 391.5,268.833 391.5,270.167 391.5,271.5C 393.897,272.368 396.397,273.035 399,273.5C 400.5,273.167 402,272.833 403.5,272.5C 405.921,270.875 408.587,269.542 411.5,268.5C 408.694,267.832 406.028,267.166 403.5,266.5C 407.167,266.5 410.833,266.5 414.5,266.5C 415.221,263.183 415.388,259.849 415,256.5C 412.723,255.883 410.556,255.216 408.5,254.5C 410.167,254.5 411.833,254.5 413.5,254.5C 413.567,253.041 413.234,251.708 412.5,250.5 Z"/></g>
<g><path style="opacity:1" fill="#5f6062" d="M 401.5,266.5 C 402.167,266.5 402.833,266.5 403.5,266.5C 406.028,267.166 408.694,267.832 411.5,268.5C 408.587,269.542 405.921,270.875 403.5,272.5C 402,272.833 400.5,273.167 399,273.5C 396.397,273.035 393.897,272.368 391.5,271.5C 391.5,270.167 391.5,268.833 391.5,267.5C 395.042,267.813 398.375,267.479 401.5,266.5 Z"/></g>
<g><path style="opacity:1" fill="#f0f0ec" d="M 430.5,266.5 C 434.514,266.334 438.514,266.501 442.5,267C 445.368,268.383 448.368,269.216 451.5,269.5C 451.5,271.167 451.5,272.833 451.5,274.5C 449.833,274.5 448.167,274.5 446.5,274.5C 440.491,274.666 434.491,274.499 428.5,274C 426.771,272.211 426.104,270.044 426.5,267.5C 428.099,267.768 429.432,267.434 430.5,266.5 Z"/></g>
<g><path style="opacity:1" fill="#616366" d="M 220.5,269.5 C 223.625,270.479 226.958,270.813 230.5,270.5C 230.034,272.201 230.034,273.701 230.5,275C 224.973,275.339 219.639,276.505 214.5,278.5C 213.5,277.167 212.5,275.833 211.5,274.5C 205.232,274.9 198.899,274.9 192.5,274.5C 185.825,274.334 179.158,274.5 172.5,275C 171.122,276.713 169.455,278.047 167.5,279C 161.175,279.5 154.842,279.666 148.5,279.5C 148.586,278.504 148.252,277.671 147.5,277C 146.1,275.562 144.433,274.729 142.5,274.5C 142.307,271.692 141.64,269.025 140.5,266.5C 143.881,266.54 147.214,266.207 150.5,265.5C 163.49,267.695 176.49,267.361 189.5,264.5C 199.827,266.24 210.16,267.906 220.5,269.5 Z"/></g>
<g><path style="opacity:1" fill="#c8c8c7" d="M 430.5,261.5 C 428.701,262.27 427.368,263.603 426.5,265.5C 427.689,266.429 429.022,266.762 430.5,266.5C 429.432,267.434 428.099,267.768 426.5,267.5C 426.104,270.044 426.771,272.211 428.5,274C 434.491,274.499 440.491,274.666 446.5,274.5C 445.791,275.404 444.791,275.737 443.5,275.5C 442.167,279.167 442.167,282.833 443.5,286.5C 436.203,284.699 429.036,282.366 422,279.5C 420.069,276.386 419.402,273.053 420,269.5C 422.196,266.975 424.362,264.475 426.5,262C 427.793,261.51 429.127,261.343 430.5,261.5 Z"/></g>
<g><path style="opacity:1" fill="#9a9c9b" d="M 443.5,286.5 C 442.167,282.833 442.167,279.167 443.5,275.5C 444.791,275.737 445.791,275.404 446.5,274.5C 448.167,274.5 449.833,274.5 451.5,274.5C 451.5,272.833 451.5,271.167 451.5,269.5C 448.368,269.216 445.368,268.383 442.5,267C 438.514,266.501 434.514,266.334 430.5,266.5C 429.022,266.762 427.689,266.429 426.5,265.5C 427.368,263.603 428.701,262.27 430.5,261.5C 433.258,260.182 436.424,259.515 440,259.5C 443.167,259.833 446.333,260.167 449.5,260.5C 451.72,262.982 454.387,264.648 457.5,265.5C 457.827,270.544 457.494,275.544 456.5,280.5C 455.232,282.304 454.565,284.304 454.5,286.5C 450.833,286.5 447.167,286.5 443.5,286.5 Z"/></g>
<g><path style="opacity:1" fill="#131313" d="M 211.5,324.5 C 209.167,324.5 206.833,324.5 204.5,324.5C 204.194,327.385 204.527,330.052 205.5,332.5C 207.568,333.865 209.901,334.865 212.5,335.5C 206.857,340.171 202.524,339.171 199.5,332.5C 199.5,330.167 199.5,327.833 199.5,325.5C 198.5,325.5 197.5,325.5 196.5,325.5C 197.72,323.718 198.386,321.718 198.5,319.5C 200.5,319.5 202.5,319.5 204.5,319.5C 204.5,320.833 204.5,322.167 204.5,323.5C 207.059,323.198 209.393,323.532 211.5,324.5 Z"/></g>
<g><path style="opacity:1" fill="#0e0e0e" d="M 230.5,318.5 C 231.071,319.973 231.071,321.64 230.5,323.5C 229.448,323.649 228.448,323.483 227.5,323C 226.845,321.513 225.845,320.347 224.5,319.5C 224.102,325.776 224.102,332.109 224.5,338.5C 225.833,338.5 227.167,338.5 228.5,338.5C 224.833,339.167 221.167,339.833 217.5,340.5C 216.833,340.5 216.167,340.5 215.5,340.5C 215.328,339.508 215.662,338.842 216.5,338.5C 217.482,335.038 217.815,331.371 217.5,327.5C 212.167,327.167 212.167,326.833 217.5,326.5C 217.104,323.956 217.771,321.789 219.5,320C 223.06,318.763 226.727,318.263 230.5,318.5 Z"/></g>
<g><path style="opacity:1" fill="#171717" d="M 233.5,320.5 C 237.241,319.599 239.241,320.932 239.5,324.5C 234.725,326.477 232.725,325.144 233.5,320.5 Z"/></g>
<g><path style="opacity:1" fill="#b4b4b4" d="M 177.5,323.5 C 174.287,323.19 171.287,323.523 168.5,324.5C 166.91,324.372 165.577,323.705 164.5,322.5C 168.775,321.424 173.108,320.757 177.5,320.5C 177.5,321.5 177.5,322.5 177.5,323.5 Z"/></g>
<g><path style="opacity:1" fill="#151515" d="M 190.5,322.5 C 190.5,325.833 190.5,329.167 190.5,332.5C 190.611,333.117 190.944,333.617 191.5,334C 190.263,334.232 189.263,334.732 188.5,335.5C 186.599,335.567 184.766,335.233 183,334.5C 180.101,336.391 176.934,336.891 173.5,336C 171.15,332.39 169.484,328.556 168.5,324.5C 171.287,323.523 174.287,323.19 177.5,323.5C 177.5,325.167 177.5,326.833 177.5,328.5C 176.842,332.677 178.508,334.177 182.5,333C 184.758,330.275 185.091,327.275 183.5,324C 185.677,322.798 188.011,322.298 190.5,322.5 Z"/></g>
<g><path style="opacity:1" fill="#0e0e0e" d="M 145.5,323.5 C 151.528,322.89 157.195,323.89 162.5,326.5C 164.363,332.272 162.363,336.106 156.5,338C 150.107,339.788 144.773,338.288 140.5,333.5C 139.626,331.253 139.292,328.92 139.5,326.5C 141.97,326.346 143.97,325.346 145.5,323.5 Z"/></g>
<g><path style="opacity:1" fill="#868686" d="M 211.5,324.5 C 209.735,325.461 207.735,325.795 205.5,325.5C 205.5,327.833 205.5,330.167 205.5,332.5C 204.527,330.052 204.194,327.385 204.5,324.5C 206.833,324.5 209.167,324.5 211.5,324.5 Z"/></g>
<g><path style="opacity:1" fill="#5c5c5c" d="M 255.5,328.5 C 253.389,327.258 251.389,327.258 249.5,328.5C 248.957,328.44 248.624,328.107 248.5,327.5C 249.667,327.167 250.833,326.833 252,326.5C 253.681,326.608 254.848,327.275 255.5,328.5 Z"/></g>
<g><path style="opacity:1" fill="#969696" d="M 429.5,327.5 C 425.833,327.5 422.167,327.5 418.5,327.5C 416.273,328.401 415.273,330.067 415.5,332.5C 414.5,332.5 413.5,332.5 412.5,332.5C 413.702,330.608 415.035,328.774 416.5,327C 421.02,326.186 425.354,326.353 429.5,327.5 Z"/></g>
<g><path style="opacity:1" fill="#e2e2e2" d="M 149.5,324.5 C 151.792,324.244 153.959,324.577 156,325.5C 156.667,328.833 156.667,332.167 156,335.5C 151.83,338.665 149.163,337.665 148,332.5C 147.109,329.502 147.609,326.836 149.5,324.5 Z"/></g>
<g><path style="opacity:1" fill="#d5d5d5" d="M 190.5,322.5 C 188.011,322.298 185.677,322.798 183.5,324C 185.091,327.275 184.758,330.275 182.5,333C 178.508,334.177 176.842,332.677 177.5,328.5C 178.268,329.263 178.768,330.263 179,331.5C 179.333,330.5 179.667,329.5 180,328.5C 180.333,328.833 180.667,329.167 181,329.5C 182.852,326.892 182.686,324.559 180.5,322.5C 182.911,321.518 185.411,320.851 188,320.5C 189.376,320.684 190.209,321.351 190.5,322.5 Z"/></g>
<g><path style="opacity:1" fill="#101010" d="M 255.5,328.5 C 255.5,329.5 255.5,330.5 255.5,331.5C 261.167,331.664 261.5,331.997 256.5,332.5C 256.19,335.713 256.523,338.713 257.5,341.5C 259.167,342.167 260.833,342.833 262.5,343.5C 258.85,344.728 255.184,344.728 251.5,343.5C 249.746,339.742 249.079,335.742 249.5,331.5C 249.5,330.5 249.5,329.5 249.5,328.5C 251.389,327.258 253.389,327.258 255.5,328.5 Z"/></g>
<g><path style="opacity:1" fill="#121212" d="M 418.5,327.5 C 422.167,327.5 425.833,327.5 429.5,327.5C 428.202,329.909 428.869,331.575 431.5,332.5C 431.47,333.497 431.97,334.164 433,334.5C 435.802,333.381 437.302,331.381 437.5,328.5C 432.319,327.518 433.319,327.518 440.5,328.5C 437.933,334.428 434.6,340.094 430.5,345.5C 428.604,346.466 426.604,346.799 424.5,346.5C 424.737,345.209 424.404,344.209 423.5,343.5C 424.932,341.353 426.765,341.02 429,342.5C 430.518,337.212 428.518,333.546 423,331.5C 422.517,330.552 422.351,329.552 422.5,328.5C 420.901,328.768 419.568,328.434 418.5,327.5 Z"/></g>
<g><path style="opacity:1" fill="#c1c1c1" d="M 440.5,328.5 C 433.319,327.518 432.319,327.518 437.5,328.5C 437.302,331.381 435.802,333.381 433,334.5C 431.97,334.164 431.47,333.497 431.5,332.5C 428.869,331.575 428.202,329.909 429.5,327.5C 433.454,326.235 437.454,326.235 441.5,327.5C 441.376,328.107 441.043,328.44 440.5,328.5 Z"/></g>
<g><path style="opacity:1" fill="#161616" d="M 392.5,332.5 C 394.074,334.102 394.741,336.102 394.5,338.5C 396.04,340.922 397.04,343.589 397.5,346.5C 397.574,348.411 398.574,349.578 400.5,350C 399.552,350.483 398.552,350.649 397.5,350.5C 394.72,349.922 392.053,349.255 389.5,348.5C 390.622,346.712 390.789,344.712 390,342.5C 389.578,340.574 388.411,339.574 386.5,339.5C 386.5,339.167 386.5,338.833 386.5,338.5C 388.308,337.082 388.975,335.082 388.5,332.5C 386.396,332.799 384.396,332.466 382.5,331.5C 386.123,330.057 389.456,330.391 392.5,332.5 Z"/></g>
<g><path style="opacity:1" fill="#1f1f1f" d="M 431.5,332.5 C 431.639,330.663 432.306,330.33 433.5,331.5C 433.043,332.298 432.376,332.631 431.5,332.5 Z"/></g>
<g><path style="opacity:1" fill="#dedede" d="M 230.5,318.5 C 231.778,318.782 232.778,319.449 233.5,320.5C 232.725,325.144 234.725,326.477 239.5,324.5C 239.389,325.117 239.056,325.617 238.5,326C 239.793,326.49 241.127,326.657 242.5,326.5C 242.5,328.5 242.5,330.5 242.5,332.5C 243.451,330.882 244.784,329.549 246.5,328.5C 247.141,329.993 248.141,330.993 249.5,331.5C 249.079,335.742 249.746,339.742 251.5,343.5C 250.288,344.23 249.288,345.23 248.5,346.5C 247.614,345.675 247.281,344.675 247.5,343.5C 246.21,342.942 245.377,341.942 245,340.5C 240.263,341.469 235.43,341.803 230.5,341.5C 230.66,343.199 230.494,344.866 230,346.5C 229.505,344.527 229.338,342.527 229.5,340.5C 229.672,339.508 229.338,338.842 228.5,338.5C 227.167,338.5 225.833,338.5 224.5,338.5C 224.102,332.109 224.102,325.776 224.5,319.5C 225.845,320.347 226.845,321.513 227.5,323C 228.448,323.483 229.448,323.649 230.5,323.5C 231.071,321.64 231.071,319.973 230.5,318.5 Z"/></g>
<g><path style="opacity:1" fill="#121212" d="M 233.5,329.5 C 235.607,328.532 237.941,328.198 240.5,328.5C 240.232,330.099 240.566,331.432 241.5,332.5C 241.833,332.5 242.167,332.5 242.5,332.5C 242.5,335.167 242.5,337.833 242.5,340.5C 240.396,340.799 238.396,340.466 236.5,339.5C 235.756,336.557 235.256,333.557 235,330.5C 234.617,329.944 234.117,329.611 233.5,329.5 Z"/></g>
<g><path style="opacity:1" fill="#686868" d="M 241.5,332.5 C 240.566,331.432 240.232,330.099 240.5,328.5C 237.941,328.198 235.607,328.532 233.5,329.5C 232.527,329.013 231.527,328.513 230.5,328C 234.152,327.501 237.818,327.335 241.5,327.5C 241.5,329.167 241.5,330.833 241.5,332.5 Z"/></g>
<g><path style="opacity:1" fill="#171717" d="M 309.5,334.5 C 307.958,335.301 306.292,335.634 304.5,335.5C 300.338,333.73 300.671,332.73 305.5,332.5C 307.333,332.585 308.666,333.252 309.5,334.5 Z"/></g>
<g><path style="opacity:1" fill="#d9d9d9" d="M 392.5,332.5 C 389.456,330.391 386.123,330.057 382.5,331.5C 384.396,332.466 386.396,332.799 388.5,332.5C 388.975,335.082 388.308,337.082 386.5,338.5C 386.5,337.167 386.5,335.833 386.5,334.5C 383.633,334.369 381.967,335.703 381.5,338.5C 379.282,338.614 377.282,339.28 375.5,340.5C 376.265,337.904 376.599,335.237 376.5,332.5C 377.5,332.5 378.5,332.5 379.5,332.5C 379.36,330.876 380.027,329.71 381.5,329C 385.152,328.501 388.818,328.335 392.5,328.5C 392.5,329.833 392.5,331.167 392.5,332.5 Z"/></g>
<g><path style="opacity:1" fill="#121212" d="M 410.5,332.5 C 411.167,332.5 411.833,332.5 412.5,332.5C 413.5,332.5 414.5,332.5 415.5,332.5C 416.052,336.035 417.218,339.368 419,342.5C 420.011,343.337 421.178,343.67 422.5,343.5C 421.852,345.586 420.352,346.586 418,346.5C 415.804,346.031 413.971,345.031 412.5,343.5C 412.804,342.85 413.137,342.183 413.5,341.5C 412.123,338.596 411.123,335.596 410.5,332.5 Z"/></g>
<g><path style="opacity:1" fill="#101010" d="M 121.5,324.5 C 122.569,325.748 123.569,327.082 124.5,328.5C 126.747,327.755 128.581,326.422 130,324.5C 131.726,325.648 131.559,326.815 129.5,328C 131.134,328.494 132.801,328.66 134.5,328.5C 134.5,329.5 134.5,330.5 134.5,331.5C 132.473,331.338 130.473,331.505 128.5,332C 128.043,332.414 127.709,332.914 127.5,333.5C 129.396,334.466 131.396,334.799 133.5,334.5C 133.5,335.5 133.5,336.5 133.5,337.5C 130.5,337.5 127.5,337.5 124.5,337.5C 124.719,338.675 124.386,339.675 123.5,340.5C 120.833,337.833 118.167,337.833 115.5,340.5C 114.158,338.995 112.492,338.328 110.5,338.5C 110.5,337.167 110.5,335.833 110.5,334.5C 112.604,334.799 114.604,334.466 116.5,333.5C 114.955,332.548 113.288,332.215 111.5,332.5C 111.5,331.167 111.5,329.833 111.5,328.5C 115.884,329.424 119.218,328.091 121.5,324.5 Z"/></g>
<g><path style="opacity:1" fill="#c0c0c0" d="M 121.5,331.5 C 122.5,331.5 123.5,331.5 124.5,331.5C 124.5,332.5 124.5,333.5 124.5,334.5C 122.396,334.799 120.396,334.466 118.5,333.5C 119.602,332.824 120.602,332.158 121.5,331.5 Z"/></g>
<g><path style="opacity:1" fill="#0f0f0f" d="M 296.5,332.5 C 297.5,332.5 298.5,332.5 299.5,332.5C 299.205,334.735 299.539,336.735 300.5,338.5C 301.952,339.302 303.618,339.802 305.5,340C 304.207,340.49 302.873,340.657 301.5,340.5C 301.237,344.6 301.57,348.6 302.5,352.5C 300.167,352.5 297.833,352.5 295.5,352.5C 296.846,350.208 296.512,348.208 294.5,346.5C 294.5,344.5 294.5,342.5 294.5,340.5C 294.107,337.487 294.774,334.82 296.5,332.5 Z"/></g>
<g><path style="opacity:1" fill="#757575" d="M 230.5,332.5 C 231.5,332.5 232.5,332.5 233.5,332.5C 233.5,335.167 233.5,337.833 233.5,340.5C 232.5,340.5 231.5,340.5 230.5,340.5C 230.5,337.833 230.5,335.167 230.5,332.5 Z"/></g>
<g><path style="opacity:1" fill="#121212" d="M 405.5,332.5 C 405.66,334.199 405.494,335.866 405,337.5C 403.855,338.684 402.688,338.684 401.5,337.5C 400.115,333.987 401.448,332.32 405.5,332.5 Z"/></g>
<g><path style="opacity:1" fill="#b7b7b7" d="M 410.5,332.5 C 411.123,335.596 412.123,338.596 413.5,341.5C 413.137,342.183 412.804,342.85 412.5,343.5C 407.08,343.513 406.413,342.013 410.5,339C 407.406,338.749 404.406,339.249 401.5,340.5C 401.5,339.5 401.5,338.5 401.5,337.5C 402.688,338.684 403.855,338.684 405,337.5C 405.494,335.866 405.66,334.199 405.5,332.5C 407.05,331.28 408.716,331.28 410.5,332.5 Z"/></g>
<g><path style="opacity:1" fill="#7d7d7d" d="M 216.5,338.5 C 215.662,338.842 215.328,339.508 215.5,340.5C 214.191,336.649 214.191,332.649 215.5,328.5C 216.487,331.768 216.82,335.102 216.5,338.5 Z"/></g>
<g><path style="opacity:1" fill="#151515" d="M 269.5,334.5 C 274.167,334.5 278.833,334.5 283.5,334.5C 283.167,337.5 284.5,338.833 287.5,338.5C 287.328,339.492 287.662,340.158 288.5,340.5C 288.957,344.42 287.291,346.92 283.5,348C 278.648,348.815 273.981,348.648 269.5,347.5C 266.088,345.511 265.088,342.678 266.5,339C 267.448,338.517 268.448,338.351 269.5,338.5C 269.5,337.167 269.5,335.833 269.5,334.5 Z"/></g>
<g><path style="opacity:1" fill="#dfdfdf" d="M 274.5,335.5 C 280.149,337.004 282.315,340.67 281,346.5C 280.586,346.957 280.086,347.291 279.5,347.5C 278.186,338.259 277.52,338.259 277.5,347.5C 273.451,347.129 271.451,344.796 271.5,340.5C 272.092,338.577 273.092,336.911 274.5,335.5 Z"/></g>
<g><path style="opacity:1" fill="#cbcbcb" d="M 418.5,327.5 C 419.568,328.434 420.901,328.768 422.5,328.5C 422.351,329.552 422.517,330.552 423,331.5C 428.518,333.546 430.518,337.212 429,342.5C 426.765,341.02 424.932,341.353 423.5,343.5C 423.167,343.5 422.833,343.5 422.5,343.5C 421.178,343.67 420.011,343.337 419,342.5C 417.218,339.368 416.052,336.035 415.5,332.5C 415.273,330.067 416.273,328.401 418.5,327.5 Z"/></g>
<g><path style="opacity:1" fill="#a6a6a6" d="M 196.5,325.5 C 197.5,325.5 198.5,325.5 199.5,325.5C 199.5,327.833 199.5,330.167 199.5,332.5C 198.835,334.369 198.169,336.369 197.5,338.5C 196.614,337.675 196.281,336.675 196.5,335.5C 193.833,335.5 191.167,335.5 188.5,335.5C 189.263,334.732 190.263,334.232 191.5,334C 190.944,333.617 190.611,333.117 190.5,332.5C 192.5,332.5 194.5,332.5 196.5,332.5C 196.5,330.167 196.5,327.833 196.5,325.5 Z"/></g>
<g><path style="opacity:1" fill="#bcbcbc" d="M 296.5,332.5 C 294.774,334.82 294.107,337.487 294.5,340.5C 292.5,340.5 290.5,340.5 288.5,340.5C 287.662,340.158 287.328,339.492 287.5,338.5C 288.833,338.5 290.167,338.5 291.5,338.5C 291.764,335.243 293.43,333.243 296.5,332.5 Z"/></g>
<g><path style="opacity:1" fill="#bcbcbc" d="M 309.5,334.5 C 312.47,335.165 315.47,335.831 318.5,336.5C 319.863,335.121 320.863,335.287 321.5,337C 320.571,338.077 319.904,339.244 319.5,340.5C 317.535,339.871 315.535,339.204 313.5,338.5C 312.006,338.709 310.839,339.376 310,340.5C 309.722,339.584 309.222,338.918 308.5,338.5C 307.552,337.022 306.219,336.022 304.5,335.5C 306.292,335.634 307.958,335.301 309.5,334.5 Z"/></g>
<g><path style="opacity:1" fill="#787878" d="M 386.5,338.5 C 386.5,338.833 386.5,339.167 386.5,339.5C 385.833,339.5 385.167,339.5 384.5,339.5C 383.791,338.596 382.791,338.263 381.5,338.5C 381.967,335.703 383.633,334.369 386.5,334.5C 386.5,335.833 386.5,337.167 386.5,338.5 Z"/></g>
<g><path style="opacity:1" fill="#0e0e0e" d="M 307.5,338.5 C 307.833,338.5 308.167,338.5 308.5,338.5C 309.222,338.918 309.722,339.584 310,340.5C 310.839,339.376 312.006,338.709 313.5,338.5C 315.535,339.204 317.535,339.871 319.5,340.5C 320.5,340.5 321.5,340.5 322.5,340.5C 320.833,341.167 319.167,341.833 317.5,342.5C 317.5,345.833 317.5,349.167 317.5,352.5C 319.167,352.5 320.833,352.5 322.5,352.5C 322.5,352.833 322.5,353.167 322.5,353.5C 320.167,353.5 317.833,353.5 315.5,353.5C 314.167,353.167 312.833,352.833 311.5,352.5C 311.384,349.14 311.051,345.807 310.5,342.5C 309.5,342.5 308.5,342.5 307.5,342.5C 307.5,341.167 307.5,339.833 307.5,338.5 Z"/></g>
<g><path style="opacity:1" fill="#767676" d="M 228.5,338.5 C 229.338,338.842 229.672,339.508 229.5,340.5C 225.5,340.5 221.5,340.5 217.5,340.5C 221.167,339.833 224.833,339.167 228.5,338.5 Z"/></g>
<g><path style="opacity:1" fill="#5f5f5f" d="M 247.5,343.5 C 246.136,340.396 246.302,337.396 248,334.5C 248.805,337.696 248.638,340.696 247.5,343.5 Z"/></g>
<g><path style="opacity:1" fill="#929292" d="M 397.5,346.5 C 397.04,343.589 396.04,340.922 394.5,338.5C 396.173,337.657 397.34,336.324 398,334.5C 398.651,336.235 398.485,337.902 397.5,339.5C 400.082,342.083 400.082,344.417 397.5,346.5 Z"/></g>
<g><path style="opacity:1" fill="#0f0f0f" d="M 381.5,338.5 C 382.791,338.263 383.791,338.596 384.5,339.5C 381.817,341.041 380.984,343.374 382,346.5C 382.671,347.252 383.504,347.586 384.5,347.5C 385.66,348.265 386.66,349.265 387.5,350.5C 385.604,351.466 383.604,351.799 381.5,351.5C 381.158,350.662 380.492,350.328 379.5,350.5C 378.167,349.167 376.833,347.833 375.5,346.5C 375.5,344.5 375.5,342.5 375.5,340.5C 377.282,339.28 379.282,338.614 381.5,338.5 Z"/></g>
<g><path style="opacity:1" fill="#0f0f0f" d="M 412.5,343.5 C 412.196,344.15 411.863,344.817 411.5,345.5C 408.894,346.652 406.227,346.818 403.5,346C 402.139,344.416 401.472,342.582 401.5,340.5C 404.406,339.249 407.406,338.749 410.5,339C 406.413,342.013 407.08,343.513 412.5,343.5 Z"/></g>
<g><path style="opacity:1" fill="#b2b2b2" d="M 334.5,340.5 C 338.649,339.92 342.316,340.586 345.5,342.5C 342.197,341.174 338.864,341.174 335.5,342.5C 334.702,342.043 334.369,341.376 334.5,340.5 Z"/></g>
<g><path style="opacity:1" fill="#121212" d="M 334.5,340.5 C 334.369,341.376 334.702,342.043 335.5,342.5C 338.864,341.174 342.197,341.174 345.5,342.5C 347.025,344.216 348.025,346.216 348.5,348.5C 348.232,350.099 348.566,351.432 349.5,352.5C 349.842,353.338 350.508,353.672 351.5,353.5C 351.5,354.167 351.5,354.833 351.5,355.5C 347.774,355.823 344.107,355.489 340.5,354.5C 342.518,349.861 341.518,346.194 337.5,343.5C 336.558,343.608 335.725,343.941 335,344.5C 334.199,347.367 334.366,350.034 335.5,352.5C 335.833,353.5 336.5,354.167 337.5,354.5C 334.316,356.414 330.649,357.08 326.5,356.5C 328.268,353.408 328.768,350.075 328,346.5C 327.333,343.833 326.667,341.167 326,338.5C 325.329,337.748 324.496,337.414 323.5,337.5C 323.196,336.85 322.863,336.183 322.5,335.5C 326.107,334.511 329.774,334.177 333.5,334.5C 333.205,336.735 333.539,338.735 334.5,340.5 Z"/></g>
<g><path style="opacity:1" fill="#272727" d="M 374.5,343.5 C 373.5,343.167 372.833,342.5 372.5,341.5C 374.203,340.34 374.869,341.007 374.5,343.5 Z"/></g>
<g><path style="opacity:1" fill="#d3d3d3" d="M 300.5,338.5 C 302.833,338.5 305.167,338.5 307.5,338.5C 307.5,339.833 307.5,341.167 307.5,342.5C 308.5,342.5 309.5,342.5 310.5,342.5C 311.051,345.807 311.384,349.14 311.5,352.5C 312.244,355.95 310.91,357.616 307.5,357.5C 307.5,355.833 307.5,354.167 307.5,352.5C 305.833,352.5 304.167,352.5 302.5,352.5C 301.57,348.6 301.237,344.6 301.5,340.5C 302.873,340.657 304.207,340.49 305.5,340C 303.618,339.802 301.952,339.302 300.5,338.5 Z"/></g>
<g><path style="opacity:1" fill="#fbfbfb" d="M 317.5,342.5 C 319.167,342.5 320.833,342.5 322.5,342.5C 322.5,345.833 322.5,349.167 322.5,352.5C 320.833,352.5 319.167,352.5 317.5,352.5C 317.5,349.167 317.5,345.833 317.5,342.5 Z"/></g>
<g><path style="opacity:1" fill="#575757" d="M 323.5,339.5 C 324.117,339.611 324.617,339.944 325,340.5C 325.905,344.819 326.238,349.152 326,353.5C 324.855,352.316 323.688,352.316 322.5,353.5C 322.5,353.167 322.5,352.833 322.5,352.5C 322.5,349.167 322.5,345.833 322.5,342.5C 320.833,342.5 319.167,342.5 317.5,342.5C 319.167,341.833 320.833,341.167 322.5,340.5C 323.167,340.5 323.5,340.167 323.5,339.5 Z"/></g>
<g><path style="opacity:1" fill="#d3d3d3" d="M 269.5,334.5 C 269.5,335.833 269.5,337.167 269.5,338.5C 268.448,338.351 267.448,338.517 266.5,339C 265.088,342.678 266.088,345.511 269.5,347.5C 267.787,349.85 265.453,350.85 262.5,350.5C 263.103,347.959 263.103,345.626 262.5,343.5C 260.833,342.833 259.167,342.167 257.5,341.5C 259.199,341.66 260.866,341.494 262.5,341C 264.397,338.266 266.73,336.1 269.5,334.5 Z"/></g>
<g><path style="opacity:1" fill="#181818" d="M 357.5,340.5 C 361.167,340.5 364.833,340.5 368.5,340.5C 371.065,341.907 372.731,344.074 373.5,347C 369.167,347.333 364.833,347.667 360.5,348C 362.827,352.688 366.16,353.521 370.5,350.5C 372.037,351.198 373.37,351.531 374.5,351.5C 368.465,355.13 362.132,355.463 355.5,352.5C 354.74,351.107 354.074,349.607 353.5,348C 353.957,344.913 355.29,342.413 357.5,340.5 Z"/></g>
<g><path style="opacity:1" fill="#d3d3d3" d="M 360.5,341.5 C 364.172,341.183 365.838,342.849 365.5,346.5C 363.5,346.5 361.5,346.5 359.5,346.5C 359.366,344.708 359.699,343.042 360.5,341.5 Z"/></g>
<g><path style="opacity:1" fill="#444444" d="M 389.5,348.5 C 392.053,349.255 394.72,349.922 397.5,350.5C 395.105,351.814 392.605,351.814 390,350.5C 387.302,352.673 384.469,353.006 381.5,351.5C 383.604,351.799 385.604,351.466 387.5,350.5C 386.66,349.265 385.66,348.265 384.5,347.5C 382.868,344.573 383.702,342.573 387,341.5C 388.289,343.645 389.122,345.978 389.5,348.5 Z"/></g>
<g><path style="opacity:1" fill="#c9c9c9" d="M 384.5,339.5 C 385.167,339.5 385.833,339.5 386.5,339.5C 388.411,339.574 389.578,340.574 390,342.5C 390.789,344.712 390.622,346.712 389.5,348.5C 389.122,345.978 388.289,343.645 387,341.5C 383.702,342.573 382.868,344.573 384.5,347.5C 383.504,347.586 382.671,347.252 382,346.5C 380.984,343.374 381.817,341.041 384.5,339.5 Z"/></g>
<g><path style="opacity:1" fill="#484848" d="M 293.5,348.5 C 293.567,349.959 293.234,351.292 292.5,352.5C 292.167,352.5 291.833,352.5 291.5,352.5C 291.18,349.102 291.513,345.768 292.5,342.5C 293.466,344.396 293.799,346.396 293.5,348.5 Z"/></g>
<g><path style="opacity:1" fill="#515151" d="M 307.5,352.5 C 305.184,349.592 305.517,347.592 308.5,346.5C 310.52,348.599 310.854,350.933 309.5,353.5C 308.817,353.137 308.15,352.804 307.5,352.5 Z"/></g>
<g><path style="opacity:1" fill="#dbdbdb" d="M 368.5,340.5 C 369.959,340.433 371.292,340.766 372.5,341.5C 372.833,342.5 373.5,343.167 374.5,343.5C 374.263,344.791 374.596,345.791 375.5,346.5C 376.833,347.833 378.167,349.167 379.5,350.5C 378.265,350.721 377.265,351.388 376.5,352.5C 375.817,352.137 375.15,351.804 374.5,351.5C 373.37,351.531 372.037,351.198 370.5,350.5C 366.16,353.521 362.827,352.688 360.5,348C 364.833,347.667 369.167,347.333 373.5,347C 372.731,344.074 371.065,341.907 368.5,340.5 Z"/></g>
<g><path style="opacity:1" fill="#a7a7a7" d="M 294.5,346.5 C 296.512,348.208 296.846,350.208 295.5,352.5C 294.5,352.5 293.5,352.5 292.5,352.5C 293.234,351.292 293.567,349.959 293.5,348.5C 294.338,348.158 294.672,347.492 294.5,346.5 Z"/></g>
<g><path style="opacity:1" fill="#515151" d="M 339.5,353.5 C 338.508,353.328 337.842,353.662 337.5,354.5C 336.5,354.167 335.833,353.5 335.5,352.5C 334.756,349.05 336.09,347.384 339.5,347.5C 339.5,349.5 339.5,351.5 339.5,353.5 Z"/></g>
<g><path style="opacity:1" fill="#d6d6d6" d="M 351.5,355.5 C 347.702,356.483 343.702,356.817 339.5,356.5C 339.5,355.5 339.5,354.5 339.5,353.5C 339.5,351.5 339.5,349.5 339.5,347.5C 336.09,347.384 334.756,349.05 335.5,352.5C 334.366,350.034 334.199,347.367 335,344.5C 335.725,343.941 336.558,343.608 337.5,343.5C 341.518,346.194 342.518,349.861 340.5,354.5C 344.107,355.489 347.774,355.823 351.5,355.5 Z"/></g>
<g><path style="opacity:1" fill="#4e4e4e" d="M 350.5,345.5 C 351.629,347.628 351.796,349.961 351,352.5C 350.31,351.262 349.81,351.262 349.5,352.5C 348.566,351.432 348.232,350.099 348.5,348.5C 349.401,347.71 350.068,346.71 350.5,345.5 Z"/></g>
<g><path style="opacity:1" fill="#c6c6c6" d="M 357.5,340.5 C 355.29,342.413 353.957,344.913 353.5,348C 354.074,349.607 354.74,351.107 355.5,352.5C 354.85,352.196 354.183,351.863 353.5,351.5C 352.304,351.846 352.304,352.346 353.5,353C 352.906,353.464 352.239,353.631 351.5,353.5C 350.508,353.672 349.842,353.338 349.5,352.5C 349.81,351.262 350.31,351.262 351,352.5C 351.796,349.961 351.629,347.628 350.5,345.5C 351.953,342.606 354.286,340.94 357.5,340.5 Z"/></g>
<g><path style="opacity:1" fill="#c7c7c7" d="M 323.5,337.5 C 324.496,337.414 325.329,337.748 326,338.5C 326.667,341.167 327.333,343.833 328,346.5C 328.768,350.075 328.268,353.408 326.5,356.5C 325.288,357.23 324.288,358.23 323.5,359.5C 322.948,357.997 322.948,356.331 323.5,354.5C 320.615,354.806 317.948,354.473 315.5,353.5C 317.833,353.5 320.167,353.5 322.5,353.5C 323.688,352.316 324.855,352.316 326,353.5C 326.238,349.152 325.905,344.819 325,340.5C 324.617,339.944 324.117,339.611 323.5,339.5C 323.5,338.833 323.5,338.167 323.5,337.5 Z"/></g>
<g><path style="opacity:1" fill="#848484" d="M 291.5,352.5 C 291.884,354.665 291.217,356.332 289.5,357.5C 287.91,354.83 288.577,353.163 291.5,352.5 Z"/></g>
</svg>
