<?xml version="1.0" standalone="no"?>
<!DOCTYPE svg PUBLIC "-//W3C//DTD SVG 20010904//EN"
 "http://www.w3.org/TR/2001/REC-SVG-20010904/DTD/svg10.dtd">
<svg version="1.0" xmlns="http://www.w3.org/2000/svg"
 width="1080.000000pt" height="1080.000000pt" viewBox="0 0 1080.000000 1080.000000"
 preserveAspectRatio="xMidYMid meet">

<g transform="translate(0.000000,1080.000000) scale(0.100000,-0.100000)"
fill="#000000" stroke="none">
<path d="M990 9708 c-4 -13 -20 -52 -35 -88 -27 -69 -75 -245 -75 -278 0 -11
6 -22 14 -25 10 -4 17 8 25 41 7 26 18 71 27 100 l15 52 64 0 c36 0 65 -3 65
-7 0 -5 -7 -41 -17 -81 -15 -64 -15 -75 -2 -82 17 -11 18 -8 54 123 15 55 38
127 51 160 25 64 25 87 0 87 -9 0 -24 -29 -41 -80 l-27 -80 -65 0 -65 0 7 28
c3 15 17 51 31 81 13 29 21 57 18 62 -10 17 -34 9 -44 -13z"/>
<path d="M1490 9685 c-42 -110 -90 -267 -90 -293 0 -40 27 -44 36 -4 15 70 38
143 66 209 16 40 28 80 26 89 -5 28 -27 28 -38 -1z"/>
<path d="M1604 9658 c-9 -29 -28 -82 -41 -118 -44 -120 -50 -180 -19 -180 7 0
18 27 25 63 7 34 30 105 51 157 27 68 35 100 28 113 -15 28 -25 20 -44 -35z"/>
<path d="M1254 9537 c-31 -28 -37 -42 -41 -84 -5 -45 -3 -52 22 -71 35 -27 38
-27 71 1 34 30 25 55 -11 31 -29 -19 -45 -11 -45 21 0 20 5 24 32 23 22 -1 38
7 55 26 28 33 29 40 3 66 -28 28 -45 25 -86 -13z m61 -16 c6 -11 -33 -36 -42
-27 -7 7 16 36 28 36 4 0 10 -4 14 -9z"/>
<path d="M1712 9535 c-57 -48 -75 -142 -32 -165 26 -14 81 20 107 66 54 94 1
164 -75 99z m58 -40 c0 -30 -59 -100 -72 -87 -15 15 40 112 64 112 4 0 8 -11
8 -25z"/>
<path d="M1886 9423 c-3 -3 -6 -13 -6 -21 0 -7 -10 -27 -21 -44 -15 -20 -18
-33 -11 -40 17 -17 62 35 62 71 0 30 -11 46 -24 34z"/>
<path d="M2478 9153 c-8 -10 -21 -28 -27 -40 -6 -13 -18 -23 -26 -23 -19 0
-30 -21 -16 -29 8 -6 7 -25 -6 -73 -16 -62 -16 -67 0 -92 10 -14 24 -26 33
-26 30 0 84 29 84 46 0 12 -5 14 -17 9 -10 -4 -31 -10 -47 -13 l-29 -5 8 49
c12 79 30 104 77 104 15 0 29 4 33 9 7 12 -25 30 -42 24 -16 -6 -16 -1 -1 32
15 33 -2 53 -24 28z"/>
<path d="M1252 9066 c-80 -44 -83 -186 -4 -186 25 0 72 42 54 48 -6 2 -20 -1
-31 -7 -27 -15 -51 -3 -51 25 0 21 5 24 33 24 60 0 103 75 58 100 -25 13 -31
12 -59 -4z m38 -40 c0 -8 -7 -17 -16 -20 -30 -11 -37 -6 -19 14 21 23 35 26
35 6z"/>
<path d="M1622 9064 c-30 -21 -82 -113 -82 -145 0 -48 45 -44 101 8 l26 24 16
-24 c17 -26 53 -41 63 -26 3 6 -6 21 -21 35 -23 21 -26 30 -20 63 6 34 3 41
-21 60 -32 25 -33 25 -62 5z m30 -71 c-27 -38 -61 -68 -68 -60 -7 7 18 50 49
85 29 32 45 12 19 -25z"/>
<path d="M1838 9033 c-24 -53 -30 -143 -11 -150 7 -3 16 13 23 37 8 29 22 49
52 70 23 17 49 30 60 30 21 0 24 13 5 29 -10 8 -23 6 -52 -9 -48 -25 -46 -25
-35 4 9 24 5 36 -12 36 -5 0 -19 -21 -30 -47z"/>
<path d="M2088 9070 c-50 -29 -77 -140 -42 -174 21 -21 57 -20 77 2 27 30 22
47 -9 27 -32 -21 -54 -13 -54 20 0 22 4 25 33 25 22 0 41 8 55 23 27 28 28 49
4 70 -21 19 -39 21 -64 7z m40 -42 c-6 -16 -36 -34 -44 -25 -9 9 15 37 33 37
8 0 13 -5 11 -12z"/>
<path d="M2646 9059 c-53 -42 -71 -113 -40 -157 19 -28 64 -29 88 -3 26 28 11
45 -20 24 -23 -15 -27 -15 -41 0 -22 22 -9 47 25 47 57 0 97 76 53 100 -27 14
-35 13 -65 -11z m54 -29 c0 -12 -40 -34 -47 -26 -9 8 17 36 33 36 8 0 14 -4
14 -10z"/>
<path d="M2861 9055 c-35 -30 -86 -128 -77 -150 9 -24 59 -18 95 13 l34 28 29
-29 c22 -22 32 -27 41 -18 8 8 5 16 -12 32 -20 19 -22 29 -17 65 5 38 2 45
-21 63 -33 26 -35 26 -72 -4z m49 -32 c0 -17 -67 -93 -82 -93 -11 0 7 35 39
78 26 35 43 41 43 15z"/>
<path d="M917 9056 c-14 -35 -18 -113 -8 -139 11 -27 11 -27 41 -12 16 9 30
21 31 28 0 6 4 2 9 -10 11 -27 45 -30 77 -8 28 20 63 77 63 104 0 32 -17 25
-44 -17 -27 -42 -54 -68 -63 -59 -3 4 0 26 7 51 12 42 8 66 -9 66 -5 0 -21
-25 -36 -55 -14 -30 -31 -55 -36 -55 -6 0 -9 24 -7 56 2 36 -1 58 -8 61 -6 2
-14 -3 -17 -11z"/>
<path d="M3067 9018 c-28 -90 -29 -104 -14 -116 11 -10 22 -3 57 34 46 49 56
52 40 10 -21 -57 9 -61 62 -9 35 34 38 35 38 14 0 -33 18 -61 40 -61 25 0 36
18 16 26 -9 4 -16 18 -16 34 0 60 -23 75 -68 44 -21 -14 -22 -14 -22 10 0 21
-5 26 -24 26 -14 0 -28 -4 -31 -10 -3 -5 -14 -14 -25 -20 -16 -9 -18 -6 -13
30 4 31 2 40 -9 40 -10 0 -21 -20 -31 -52z"/>
<path d="M2133 8718 c-13 -16 -68 -168 -83 -226 -6 -23 -8 -47 -5 -52 10 -17
33 -11 40 10 12 38 105 100 105 70 0 -20 -63 -80 -96 -92 -37 -13 -40 -31 -6
-36 30 -5 87 32 111 72 46 74 12 124 -60 88 l-40 -20 7 22 c3 11 19 51 34 88
22 53 25 70 15 78 -9 7 -15 7 -22 -2z"/>
<path d="M974 8591 c-38 -23 -74 -68 -74 -92 0 -9 11 -31 25 -47 32 -38 31
-42 -5 -42 -32 0 -40 -14 -14 -24 23 -9 67 -7 83 3 18 12 7 41 -29 76 l-29 28
20 29 c11 15 29 33 40 39 18 9 19 7 13 -15 -5 -22 -3 -26 15 -26 39 0 39 80 0
88 -8 1 -28 -6 -45 -17z"/>
<path d="M1141 8549 c-33 -45 -47 -95 -37 -134 10 -38 64 -35 111 6 49 43 31
60 -24 23 -50 -33 -65 -24 -46 29 21 62 67 103 57 52 -6 -35 25 -34 34 2 9 34
-6 57 -39 61 -21 3 -32 -5 -56 -39z"/>
<path d="M1348 8543 c-24 -53 -30 -143 -11 -150 7 -3 16 13 23 37 8 29 22 49
52 70 23 17 49 30 60 30 21 0 24 13 5 29 -10 8 -23 6 -52 -9 -48 -25 -46 -25
-35 4 9 24 5 36 -12 36 -5 0 -19 -21 -30 -47z"/>
<path d="M1598 8580 c-50 -29 -77 -140 -42 -174 21 -21 57 -20 77 2 27 30 22
47 -9 27 -32 -21 -54 -13 -54 20 0 22 4 25 33 25 22 0 41 8 55 23 27 28 28 49
4 70 -21 19 -39 21 -64 7z m40 -42 c-6 -16 -36 -34 -44 -25 -9 9 15 37 33 37
8 0 13 -5 11 -12z"/>
<path d="M2372 8577 c-41 -23 -100 -131 -88 -162 10 -26 59 -18 91 15 35 36
39 37 53 6 11 -25 48 -40 58 -24 4 6 -3 19 -16 28 -16 12 -23 27 -22 50 0 18
3 35 7 38 5 6 -44 62 -54 62 -3 -1 -16 -6 -29 -13z m38 -48 c0 -12 -70 -89
-81 -89 -12 0 17 58 44 87 19 21 37 22 37 2z"/>
<path d="M2584 8553 c-26 -61 -40 -141 -27 -154 15 -15 33 -3 33 23 0 27 83
108 110 108 21 0 28 29 8 31 -27 3 -44 -3 -70 -22 l-28 -19 10 25 c14 36 13
45 -6 45 -8 0 -22 -17 -30 -37z"/>
<path d="M1760 8554 c-15 -38 -12 -130 4 -143 10 -8 20 -6 41 11 25 19 28 20
37 5 16 -29 53 -20 91 22 41 46 54 78 37 95 -9 8 -15 7 -24 -8 -54 -89 -76
-107 -75 -59 0 15 4 37 8 48 5 11 6 26 4 33 -10 24 -28 11 -46 -32 -18 -44
-43 -74 -52 -64 -3 3 -1 25 3 49 5 24 7 50 4 57 -6 20 -22 14 -32 -14z"/>
<path d="M3201 7331 c-12 -8 -15 -42 -16 -169 -1 -87 -4 -163 -8 -168 -8 -13
28 -73 49 -81 8 -3 25 4 38 16 19 18 23 32 24 99 1 42 -2 124 -7 181 -6 83
-12 107 -26 118 -22 15 -35 16 -54 4z"/>
<path d="M2767 7043 c-4 -3 -7 -37 -7 -74 0 -52 7 -83 31 -140 17 -41 34 -77
38 -81 11 -13 86 36 89 59 2 11 -11 43 -27 71 -17 27 -31 63 -31 80 0 52 -66
112 -93 85z"/>
<path d="M4502 6878 c-534 -21 -974 -115 -1329 -283 -441 -209 -689 -572 -659
-966 16 -206 92 -373 266 -578 363 -428 917 -708 1740 -880 441 -92 808 -109
1765 -81 366 11 763 17 1603 25 543 5 645 11 857 45 210 35 343 69 360 93 36
52 9 89 -84 116 -419 121 -446 130 -583 194 -195 91 -380 240 -508 409 -34 46
-186 269 -338 497 -151 227 -310 457 -353 511 -247 307 -615 550 -1057 699
-447 151 -1065 224 -1680 199z m818 -142 c481 -56 849 -158 1184 -328 223
-114 403 -246 567 -414 121 -126 202 -234 379 -509 162 -251 353 -533 417
-617 100 -131 275 -285 420 -370 119 -70 265 -129 431 -174 63 -17 75 -27 46
-38 -58 -22 -910 -54 -1634 -62 -344 -4 -742 -10 -885 -14 -345 -10 -1067 -4
-1230 10 -362 31 -674 91 -1025 197 -198 60 -480 176 -618 255 l-72 42 113 41
c145 53 197 83 278 164 89 89 115 133 134 221 27 121 6 243 -53 319 -15 19
-40 60 -57 89 -41 74 -94 111 -171 119 -32 3 -64 10 -70 14 -6 5 -38 12 -71
15 -73 8 -92 -1 -210 -99 -100 -83 -173 -165 -226 -252 -46 -77 -62 -123 -72
-209 l-7 -69 -24 29 c-106 128 -187 292 -236 478 -28 107 -28 263 1 354 69
221 309 437 623 561 340 133 716 220 1118 256 194 18 763 12 950 -9z m-1884
-1111 c10 -8 41 -15 67 -15 56 0 95 -18 130 -59 77 -91 77 -288 2 -391 -79
-107 -167 -167 -330 -225 -83 -30 -115 -37 -150 -33 -61 7 -119 48 -160 113
-31 47 -35 62 -35 117 1 114 52 209 185 344 121 123 178 163 231 164 22 0 49
-7 60 -15z"/>
<path d="M5940 5770 c-105 -15 -385 -39 -530 -46 -153 -7 -200 -22 -237 -77
-46 -67 -43 -125 10 -185 18 -20 41 -56 52 -80 31 -71 59 -88 161 -96 48 -3
89 -7 90 -9 1 -1 -8 -40 -22 -86 -34 -116 -45 -199 -46 -322 0 -119 9 -146 49
-151 25 -3 29 -8 33 -49 9 -75 19 -81 123 -77 78 3 91 6 107 26 23 28 46 106
71 242 11 58 30 130 44 160 13 30 26 73 30 95 4 22 22 76 42 121 l35 81 106
17 c200 32 254 59 267 134 9 58 -1 96 -38 134 -18 18 -39 51 -47 72 -8 21 -32
52 -52 69 -33 26 -46 30 -110 33 -40 1 -102 -1 -138 -6z m216 -83 c17 -20 24
-40 24 -71 0 -38 -3 -45 -27 -54 -47 -18 -103 -30 -217 -46 -59 -8 -109 -16
-110 -18 -18 -26 -96 -231 -96 -251 0 -15 -4 -35 -9 -45 -25 -48 -43 -107 -61
-202 -11 -58 -28 -130 -36 -162 -16 -54 -18 -56 -53 -60 -66 -6 -80 0 -87 39
-11 61 4 233 30 328 14 50 47 146 75 214 28 69 50 126 48 127 -1 1 -40 -2 -87
-8 -89 -10 -273 -2 -301 13 -9 4 -24 24 -33 43 -15 31 -15 39 -2 70 8 19 23
39 34 45 10 5 68 13 128 16 121 6 441 33 549 45 39 5 101 7 139 6 61 -2 71 -5
92 -29z"/>
<path d="M6540 5658 c-30 -20 -38 -38 -77 -158 -24 -74 -78 -238 -119 -365
-42 -126 -78 -250 -81 -276 -7 -59 17 -133 60 -185 18 -21 43 -61 56 -87 14
-27 34 -53 46 -57 23 -9 111 4 129 19 6 5 50 20 98 35 148 45 224 81 318 152
112 84 173 168 215 297 43 134 29 228 -46 315 -16 18 -29 37 -29 43 0 6 -14
31 -31 56 -53 77 -214 167 -290 162 -31 -3 -42 3 -71 34 -32 34 -40 37 -90 37
-41 0 -64 -6 -88 -22z m136 -73 c14 -35 15 -35 77 -35 48 0 76 -7 123 -29 193
-91 235 -237 127 -444 -33 -61 -114 -157 -134 -157 -5 0 -24 -14 -43 -30 -45
-40 -139 -82 -267 -120 -57 -17 -108 -35 -113 -40 -6 -6 -25 -10 -43 -10 -28
0 -35 6 -53 40 -36 71 -29 115 74 428 52 158 103 314 112 347 24 79 29 85 81
85 41 0 45 -2 59 -35z"/>
<path d="M6717 5366 c-26 -7 -49 -15 -52 -18 -5 -5 -111 -316 -121 -355 -6
-21 -6 -22 42 -7 151 45 255 127 294 230 20 54 20 57 3 87 -37 62 -91 82 -166
63z"/>
<path d="M4284 5552 c-173 -131 -321 -320 -344 -441 -23 -124 -15 -157 66
-280 83 -125 104 -150 151 -178 41 -24 58 -28 123 -27 63 0 92 7 185 42 127
49 199 94 271 168 81 85 106 127 125 215 27 124 6 242 -56 324 -19 24 -43 61
-54 82 -37 74 -112 123 -186 123 -20 0 -45 5 -56 10 -10 6 -47 13 -82 17 l-62
5 -81 -60z m186 -17 c8 -10 30 -15 64 -15 69 0 114 -25 149 -81 68 -110 57
-281 -24 -382 -54 -69 -138 -139 -197 -165 -181 -81 -264 -97 -328 -64 -49 25
-95 74 -124 131 -20 39 -21 50 -12 117 12 85 45 153 125 251 45 56 162 162
227 206 31 21 103 22 120 2z"/>
<path d="M4490 5332 c-104 -13 -134 -25 -182 -70 -47 -43 -148 -193 -148 -218
0 -6 9 -19 20 -29 19 -17 26 -18 66 -7 159 43 280 126 309 212 29 89 10 122
-65 112z"/>
<path d="M3404 5415 c-39 -7 -81 -18 -92 -24 -32 -17 -121 -129 -160 -199 -32
-59 -32 -60 -13 -83 18 -22 22 -23 63 -12 151 40 269 112 304 183 33 66 39
113 19 133 -19 20 -25 20 -121 2z"/>
<path d="M2370 6763 c0 -30 13 -58 58 -128 77 -118 92 -131 131 -116 20 9 31
22 35 43 10 51 8 56 -49 118 -30 33 -55 63 -55 68 0 4 -24 16 -52 27 -29 11
-56 21 -60 23 -5 2 -8 -14 -8 -35z"/>
</g>
</svg>
